<svg width="272" height="308" viewBox="0 0 272 308" fill="none" xmlns="http://www.w3.org/2000/svg">
<mask id="mask0_0_55" style="mask-type:alpha" maskUnits="userSpaceOnUse" x="0" y="0" width="272" height="308">
<path d="M250 308H22C9.84974 308 0 298.15 0 286V22C0 9.84974 9.84974 0 22 0H170L272 102V286C272 298.15 262.15 308 250 308Z" fill="url(#paint0_linear_0_55)"/>
</mask>
<g mask="url(#mask0_0_55)">
<path d="M250 308H22C9.84974 308 0 298.15 0 286V22C0 9.84974 9.84974 0 22 0H170L272 102V286C272 298.15 262.15 308 250 308Z" fill="url(#paint1_linear_0_55)"/>
<g opacity="0.26" filter="url(#filter0_f_0_55)">
<rect x="48" y="149" width="178" height="84" fill="#E66000" style="mix-blend-mode:darken"/>
</g>
<path opacity="0.11" d="M203.912 225.484V154.516C207.984 153.097 211.629 150.668 214.505 147.456C217.382 144.244 219.395 140.354 220.358 136.151C221.32 131.947 221.199 127.569 220.007 123.425C218.815 119.281 216.59 115.508 213.541 112.459C210.492 109.41 206.719 107.185 202.575 105.993C198.431 104.801 194.053 104.68 189.849 105.642C185.646 106.605 181.756 108.618 178.544 111.495C175.332 114.371 172.903 118.016 171.484 122.088H100.516C99.0974 118.016 96.6682 114.371 93.4559 111.495C90.2437 108.618 86.3537 106.605 82.1506 105.642C77.9475 104.68 73.5688 104.801 69.425 105.993C65.2813 107.185 61.5081 109.41 58.4591 112.459C55.4101 115.508 53.1852 119.281 51.9929 123.425C50.8007 127.569 50.68 131.947 51.6423 136.151C52.6047 140.354 54.6184 144.244 57.4949 147.456C60.3714 150.668 64.0163 153.097 68.0882 154.516V225.484C64.0163 226.903 60.3714 229.332 57.4949 232.544C54.6184 235.756 52.6047 239.646 51.6423 243.849C50.68 248.053 50.8007 252.431 51.9929 256.575C53.1852 260.719 55.4101 264.492 58.4591 267.541C61.5081 270.59 65.2813 272.815 69.425 274.007C73.5688 275.199 77.9475 275.32 82.1506 274.358C86.3537 273.395 90.2437 271.382 93.4559 268.505C96.6682 265.629 99.0974 261.984 100.516 257.912H171.484C172.903 261.984 175.332 265.629 178.544 268.505C181.756 271.382 185.646 273.395 189.849 274.358C194.053 275.32 198.431 275.199 202.575 274.007C206.719 272.815 210.492 270.59 213.541 267.541C216.59 264.492 218.815 260.719 220.007 256.575C221.199 252.431 221.32 248.053 220.358 243.849C219.395 239.646 217.382 235.756 214.505 232.544C211.629 229.332 207.984 226.903 203.912 225.484ZM195.423 122.088C197.102 122.088 198.743 122.586 200.139 123.519C201.535 124.452 202.623 125.777 203.266 127.329C203.908 128.88 204.076 130.587 203.749 132.233C203.421 133.88 202.613 135.393 201.425 136.58C200.238 137.767 198.726 138.575 197.079 138.903C195.432 139.231 193.725 139.062 192.174 138.42C190.623 137.777 189.297 136.689 188.365 135.293C187.432 133.897 186.934 132.256 186.934 130.577C186.934 128.326 187.828 126.167 189.42 124.575C191.012 122.983 193.171 122.088 195.423 122.088ZM76.5772 122.088C78.2561 122.088 79.8974 122.586 81.2934 123.519C82.6894 124.452 83.7774 125.777 84.4199 127.329C85.0625 128.88 85.2306 130.587 84.903 132.233C84.5755 133.88 83.767 135.393 82.5798 136.58C81.3926 137.767 79.88 138.575 78.2333 138.903C76.5866 139.231 74.8797 139.062 73.3286 138.42C71.7774 137.777 70.4516 136.689 69.5188 135.293C68.586 133.897 68.0882 132.256 68.0882 130.577C68.0882 128.326 68.9826 126.167 70.5745 124.575C72.1665 122.983 74.3257 122.088 76.5772 122.088ZM76.5772 257.912C74.8982 257.912 73.2569 257.414 71.8609 256.481C70.4649 255.548 69.3769 254.223 68.7344 252.671C68.0919 251.12 67.9237 249.413 68.2513 247.767C68.5788 246.12 69.3873 244.607 70.5745 243.42C71.7617 242.233 73.2743 241.425 74.921 241.097C76.5677 240.769 78.2746 240.938 79.8257 241.58C81.3769 242.223 82.7027 243.311 83.6355 244.707C84.5683 246.103 85.0661 247.744 85.0661 249.423C85.0661 251.674 84.1718 253.833 82.5798 255.425C80.9878 257.017 78.8286 257.912 76.5772 257.912ZM171.484 240.934H100.516C99.2485 237.374 97.2045 234.14 94.5322 231.468C91.8599 228.796 88.6264 226.751 85.0661 225.484V154.516C88.6264 153.249 91.8599 151.204 94.5322 148.532C97.2045 145.86 99.2485 142.626 100.516 139.066H171.484C172.751 142.626 174.796 145.86 177.468 148.532C180.14 151.204 183.374 153.249 186.934 154.516V225.484C183.374 226.751 180.14 228.796 177.468 231.468C174.796 234.14 172.751 237.374 171.484 240.934ZM195.423 257.912C193.744 257.912 192.103 257.414 190.707 256.481C189.311 255.548 188.223 254.223 187.58 252.671C186.938 251.12 186.769 249.413 187.097 247.767C187.425 246.12 188.233 244.607 189.42 243.42C190.607 242.233 192.12 241.425 193.767 241.097C195.413 240.769 197.12 240.938 198.671 241.58C200.223 242.223 201.548 243.311 202.481 244.707C203.414 246.103 203.912 247.744 203.912 249.423C203.912 251.674 203.017 253.833 201.425 255.425C199.833 257.017 197.674 257.912 195.423 257.912Z" fill="white"/>
<path d="M100.506 217.395C99.4523 217.395 98.5833 217.053 97.8986 216.368C97.2666 215.683 96.9506 214.841 96.9506 213.84C96.9506 213.419 97.0823 212.892 97.3456 212.26L117.491 164.702C117.912 163.754 118.491 162.99 119.229 162.411C120.019 161.779 120.967 161.463 122.073 161.463H122.863C123.969 161.463 124.89 161.779 125.628 162.411C126.418 162.99 127.023 163.754 127.445 164.702L147.59 212.26C147.853 212.892 147.985 213.419 147.985 213.84C147.985 214.841 147.642 215.683 146.958 216.368C146.326 217.053 145.483 217.395 144.43 217.395C143.692 217.395 143.008 217.211 142.376 216.842C141.796 216.421 141.349 215.868 141.033 215.183L135.898 202.859H109.038L103.903 215.183C103.587 215.868 103.113 216.421 102.481 216.842C101.901 217.211 101.243 217.395 100.506 217.395ZM111.803 196.302H133.133L122.468 170.627L111.803 196.302ZM168.69 217.395C167.689 217.395 166.847 217.053 166.162 216.368C165.477 215.683 165.135 214.841 165.135 213.84V165.097C165.135 164.096 165.477 163.254 166.162 162.569C166.847 161.832 167.689 161.463 168.69 161.463C169.691 161.463 170.533 161.832 171.218 162.569C171.955 163.254 172.324 164.096 172.324 165.097V213.84C172.324 214.841 171.955 215.683 171.218 216.368C170.533 217.053 169.691 217.395 168.69 217.395Z" fill="white"/>
<path d="M97.8986 216.368L96.429 217.725L96.4561 217.754L96.4844 217.782L97.8986 216.368ZM97.3456 212.26L95.504 211.48L95.4995 211.491L97.3456 212.26ZM117.491 164.702L115.663 163.89L115.656 163.906L115.649 163.922L117.491 164.702ZM119.229 162.411L120.464 163.984L120.471 163.978L120.478 163.973L119.229 162.411ZM125.628 162.411L124.326 163.93L124.384 163.979L124.445 164.024L125.628 162.411ZM127.445 164.702L129.286 163.922L129.279 163.906L129.272 163.89L127.445 164.702ZM147.59 212.26L149.436 211.491L149.431 211.48L147.59 212.26ZM146.958 216.368L145.543 214.954L145.515 214.982L145.488 215.011L146.958 216.368ZM142.376 216.842L141.199 218.459L141.281 218.519L141.368 218.57L142.376 216.842ZM141.033 215.183L139.186 215.952L139.201 215.987L139.217 216.021L141.033 215.183ZM135.898 202.859L137.744 202.09L137.231 200.859H135.898V202.859ZM109.038 202.859V200.859H107.704L107.191 202.09L109.038 202.859ZM103.903 215.183L105.719 216.021L105.734 215.987L105.749 215.952L103.903 215.183ZM102.481 216.842L103.554 218.529L103.572 218.518L103.59 218.506L102.481 216.842ZM111.803 196.302L109.956 195.535L108.806 198.302H111.803V196.302ZM133.133 196.302V198.302H136.129L134.98 195.535L133.133 196.302ZM122.468 170.627L124.315 169.86L122.468 165.413L120.621 169.86L122.468 170.627ZM100.506 215.395C99.9314 215.395 99.5876 215.229 99.3128 214.954L96.4844 217.782C97.579 218.877 98.9732 219.395 100.506 219.395V215.395ZM99.3682 215.011C99.1038 214.725 98.9506 214.379 98.9506 213.84H94.9506C94.9506 215.303 95.4294 216.642 96.429 217.725L99.3682 215.011ZM98.9506 213.84C98.9506 213.797 98.9743 213.551 99.1918 213.029L95.4995 211.491C95.1903 212.233 94.9506 213.041 94.9506 213.84H98.9506ZM99.1872 213.04L119.332 165.482L115.649 163.922L95.504 211.48L99.1872 213.04ZM119.318 165.514C119.622 164.832 120.01 164.341 120.464 163.984L117.993 160.838C116.973 161.64 116.202 162.676 115.663 163.89L119.318 165.514ZM120.478 163.973C120.88 163.651 121.376 163.463 122.073 163.463V159.463C120.558 159.463 119.158 159.907 117.979 160.849L120.478 163.973ZM122.073 163.463H122.863V159.463H122.073V163.463ZM122.863 163.463C123.562 163.463 124.001 163.651 124.326 163.93L126.929 160.892C125.779 159.907 124.376 159.463 122.863 159.463V163.463ZM124.445 164.024C124.937 164.385 125.329 164.865 125.617 165.514L129.272 163.89C128.718 162.643 127.898 161.596 126.81 160.798L124.445 164.024ZM125.603 165.482L145.748 213.04L149.431 211.48L129.286 163.922L125.603 165.482ZM145.743 213.029C145.961 213.551 145.985 213.797 145.985 213.84H149.985C149.985 213.041 149.745 212.233 149.436 211.491L145.743 213.029ZM145.985 213.84C145.985 214.33 145.839 214.658 145.543 214.954L148.372 217.782C149.445 216.709 149.985 215.351 149.985 213.84H145.985ZM145.488 215.011C145.286 215.23 145.005 215.395 144.43 215.395V219.395C145.961 219.395 147.365 218.875 148.427 217.725L145.488 215.011ZM144.43 215.395C144.044 215.395 143.707 215.303 143.383 215.114L141.368 218.57C142.308 219.118 143.341 219.395 144.43 219.395V215.395ZM143.552 215.225C143.264 215.015 143.029 214.736 142.849 214.345L139.217 216.021C139.668 216.999 140.329 217.827 141.199 218.459L143.552 215.225ZM142.879 214.414L137.744 202.09L134.051 203.628L139.186 215.952L142.879 214.414ZM135.898 200.859H109.038V204.859H135.898V200.859ZM107.191 202.09L102.056 214.414L105.749 215.952L110.884 203.628L107.191 202.09ZM102.087 214.345C101.927 214.692 101.698 214.96 101.371 215.178L103.59 218.506C104.527 217.882 105.247 217.044 105.719 216.021L102.087 214.345ZM101.407 215.155C101.172 215.304 100.892 215.395 100.506 215.395V219.395C101.594 219.395 102.63 219.117 103.554 218.529L101.407 215.155ZM111.803 198.302H133.133V194.302H111.803V198.302ZM134.98 195.535L124.315 169.86L120.621 171.394L131.286 197.069L134.98 195.535ZM120.621 169.86L109.956 195.535L113.65 197.069L124.315 171.394L120.621 169.86ZM166.162 216.368L167.576 214.954L166.162 216.368ZM166.162 162.569L167.576 163.983L167.602 163.957L167.628 163.93L166.162 162.569ZM171.218 162.569L169.752 163.93L169.803 163.984L169.857 164.035L171.218 162.569ZM171.218 216.368L169.857 214.902L169.83 214.928L169.804 214.954L171.218 216.368ZM168.69 215.395C168.2 215.395 167.872 215.25 167.576 214.954L164.748 217.782C165.821 218.856 167.179 219.395 168.69 219.395V215.395ZM167.576 214.954C167.28 214.658 167.135 214.33 167.135 213.84H163.135C163.135 215.351 163.674 216.709 164.748 217.782L167.576 214.954ZM167.135 213.84V165.097H163.135V213.84H167.135ZM167.135 165.097C167.135 164.607 167.28 164.279 167.576 163.983L164.748 161.155C163.674 162.228 163.135 163.586 163.135 165.097H167.135ZM167.628 163.93C167.936 163.598 168.249 163.463 168.69 163.463V159.463C167.13 159.463 165.757 160.066 164.696 161.208L167.628 163.93ZM168.69 163.463C169.131 163.463 169.444 163.598 169.752 163.93L172.684 161.208C171.623 160.066 170.25 159.463 168.69 159.463V163.463ZM169.857 164.035C170.189 164.343 170.324 164.656 170.324 165.097H174.324C174.324 163.537 173.721 162.164 172.579 161.103L169.857 164.035ZM170.324 165.097V213.84H174.324V165.097H170.324ZM170.324 213.84C170.324 214.281 170.189 214.594 169.857 214.902L172.579 217.834C173.721 216.773 174.324 215.4 174.324 213.84H170.324ZM169.804 214.954C169.508 215.25 169.18 215.395 168.69 215.395V219.395C170.201 219.395 171.559 218.856 172.632 217.782L169.804 214.954Z" fill="white"/>
<mask id="mask1_0_55" style="mask-type:alpha" maskUnits="userSpaceOnUse" x="0" y="0" width="272" height="308">
<path d="M250 308H22C9.84974 308 0 298.15 0 286V22C0 9.84974 9.84974 0 22 0H170L272 102V286C272 298.15 262.15 308 250 308Z" fill="url(#paint2_linear_0_55)"/>
</mask>
<g mask="url(#mask1_0_55)">
<ellipse opacity="0.04" cx="-14.5" cy="-12.5" rx="223.5" ry="214.5" fill="url(#paint3_linear_0_55)"/>
<ellipse opacity="0.06" cx="-14.5" cy="-12.5" rx="140.5" ry="134.5" fill="url(#paint4_linear_0_55)"/>
</g>
<g filter="url(#filter1_d_0_55)">
<path d="M272 102H192C179.85 102 170 92.1503 170 80V0L272 102Z" fill="url(#paint5_linear_0_55)"/>
</g>
</g>
<defs>
<filter id="filter0_f_0_55" x="9" y="110" width="256" height="162" filterUnits="userSpaceOnUse" color-interpolation-filters="sRGB">
<feFlood flood-opacity="0" result="BackgroundImageFix"/>
<feBlend mode="normal" in="SourceGraphic" in2="BackgroundImageFix" result="shape"/>
<feGaussianBlur stdDeviation="19.5" result="effect1_foregroundBlur_0_55"/>
</filter>
<filter id="filter1_d_0_55" x="147" y="-24" width="152" height="152" filterUnits="userSpaceOnUse" color-interpolation-filters="sRGB">
<feFlood flood-opacity="0" result="BackgroundImageFix"/>
<feColorMatrix in="SourceAlpha" type="matrix" values="0 0 0 0 0 0 0 0 0 0 0 0 0 0 0 0 0 0 127 0" result="hardAlpha"/>
<feOffset dx="2" dy="1"/>
<feGaussianBlur stdDeviation="12.5"/>
<feColorMatrix type="matrix" values="0 0 0 0 0 0 0 0 0 0 0 0 0 0 0 0 0 0 0.33 0"/>
<feBlend mode="normal" in2="BackgroundImageFix" result="effect1_dropShadow_0_55"/>
<feBlend mode="normal" in="SourceGraphic" in2="effect1_dropShadow_0_55" result="shape"/>
</filter>
<linearGradient id="paint0_linear_0_55" x1="136" y1="0" x2="136" y2="308" gradientUnits="userSpaceOnUse">
<stop stop-color="#FF7979"/>
<stop offset="1" stop-color="#E85555"/>
</linearGradient>
<linearGradient id="paint1_linear_0_55" x1="136" y1="0" x2="136" y2="308" gradientUnits="userSpaceOnUse">
<stop stop-color="#FFA216"/>
<stop offset="1" stop-color="#EF8100"/>
</linearGradient>
<linearGradient id="paint2_linear_0_55" x1="136" y1="0" x2="136" y2="308" gradientUnits="userSpaceOnUse">
<stop stop-color="#FFA216"/>
<stop offset="1" stop-color="#EF8100"/>
</linearGradient>
<linearGradient id="paint3_linear_0_55" x1="1.72772" y1="-5.12887" x2="69.5069" y2="174.758" gradientUnits="userSpaceOnUse">
<stop stop-color="white" stop-opacity="0"/>
<stop offset="1" stop-color="white"/>
</linearGradient>
<linearGradient id="paint4_linear_0_55" x1="-4.29868" y1="-7.87801" x2="38.1204" y2="104.989" gradientUnits="userSpaceOnUse">
<stop stop-color="white" stop-opacity="0"/>
<stop offset="1" stop-color="white"/>
</linearGradient>
<linearGradient id="paint5_linear_0_55" x1="221" y1="0" x2="221" y2="102" gradientUnits="userSpaceOnUse">
<stop stop-color="#FF7A1B"/>
<stop offset="1" stop-color="#E86100"/>
</linearGradient>
</defs>
</svg>
