<svg width="280" height="308" viewBox="0 0 280 308" fill="none" xmlns="http://www.w3.org/2000/svg">
<mask id="mask0_204_9" style="mask-type:alpha" maskUnits="userSpaceOnUse" x="4" y="0" width="272" height="308">
<path d="M254 307.5H26C14.1259 307.5 4.5 297.874 4.5 286V22C4.5 10.1259 14.1259 0.5 26 0.5H173.793L275.5 102.207V286C275.5 297.874 265.874 307.5 254 307.5Z" fill="url(#paint0_linear_204_9)" stroke="black"/>
</mask>
<g mask="url(#mask0_204_9)">
<path d="M254 308H26C13.8497 308 4 298.15 4 286V22C4 9.84974 13.8497 0 26 0H174L276 102V286C276 298.15 266.15 308 254 308Z" fill="url(#paint1_linear_204_9)"/>
<g opacity="0.2" filter="url(#filter0_f_204_9)">
<rect x="52" y="149" width="178" height="84" fill="#214CE5" style="mix-blend-mode:darken"/>
</g>
<g opacity="0.13">
<path fill-rule="evenodd" clip-rule="evenodd" d="M124.332 154.724C121.572 153.131 118.185 153.147 115.441 154.768C112.696 156.388 111.008 159.367 111.008 162.59V221.772C111.008 224.994 112.696 227.974 115.441 229.594C118.185 231.214 121.572 231.231 124.332 229.638L175.6 200.047C178.387 198.439 180.109 195.435 180.109 192.181C180.109 188.927 178.387 185.923 175.6 184.315L124.332 154.724ZM153.156 192.181L128.84 206.216V178.146L153.156 192.181Z" fill="white"/>
<path fill-rule="evenodd" clip-rule="evenodd" d="M139.999 113L139.288 113.001C138.828 113.002 138.154 113.004 137.292 113.008C135.57 113.016 133.095 113.033 130.08 113.066C124.053 113.131 115.846 113.262 107.146 113.524C98.4608 113.786 89.2122 114.181 81.1228 114.78C73.2827 115.36 65.7748 116.178 61.0167 117.47L60.893 117.504C55.1858 119.143 50.0058 122.281 45.8762 126.602C41.7465 130.923 38.8135 136.274 37.3734 142.113C37.3252 142.309 37.2834 142.506 37.2481 142.704C34.3476 159.028 32.9273 175.588 33.005 192.175C32.9047 208.887 34.3251 225.573 37.2482 242.02C37.3004 242.314 37.3669 242.605 37.4475 242.892C39.0352 248.55 42.0339 253.697 46.154 257.836C50.274 261.974 55.3761 264.964 60.9672 266.517L61.0167 266.53C65.7748 267.822 73.2827 268.64 81.1228 269.22C89.2122 269.819 98.4608 270.214 107.146 270.476C115.846 270.738 124.053 270.869 130.08 270.934C133.095 270.967 135.57 270.984 137.292 270.992C138.154 270.996 138.828 270.998 139.288 270.999L139.996 271L140.712 270.999C141.172 270.998 141.846 270.996 142.708 270.992C144.43 270.984 146.905 270.967 149.92 270.934C155.947 270.869 164.154 270.738 172.854 270.476C181.539 270.214 190.788 269.819 198.877 269.22C206.717 268.64 214.225 267.822 218.983 266.53L219.107 266.496C224.814 264.857 229.994 261.718 234.124 257.398C238.253 253.077 241.186 247.726 242.627 241.887C242.675 241.691 242.717 241.494 242.752 241.295C245.63 225.092 247.051 208.657 246.995 192.193C247.096 175.479 245.675 158.791 242.752 142.342C242.717 142.144 242.675 141.947 242.627 141.751C241.186 135.912 238.253 130.561 234.124 126.24C229.994 121.92 224.814 118.781 219.107 117.142C219.003 117.113 218.899 117.085 218.795 117.059C214.107 115.897 206.664 115.154 198.821 114.623C190.747 114.078 181.511 113.717 172.831 113.478C164.137 113.239 155.936 113.12 149.912 113.06C146.898 113.03 144.425 113.015 142.704 113.008C141.843 113.004 141.17 113.002 140.711 113.001L139.999 113ZM140 122.049L140 131.099L140.675 131.099L142.628 131.106C144.321 131.113 146.761 131.128 149.737 131.157C155.695 131.217 163.788 131.335 172.347 131.57C180.92 131.806 189.895 132.159 197.636 132.682C205.469 133.211 211.374 133.878 214.405 134.602C217.032 135.385 219.416 136.846 221.324 138.842C223.206 140.811 224.561 143.235 225.261 145.883C227.952 161.143 229.259 176.621 229.163 192.124L229.162 192.214C229.217 207.483 227.911 222.725 225.261 237.755C224.561 240.403 223.206 242.827 221.324 244.796C219.394 246.816 216.977 248.286 214.314 249.063C211.382 249.846 205.499 250.583 197.58 251.169C189.854 251.741 180.891 252.127 172.324 252.385C163.771 252.643 155.683 252.772 149.729 252.837C146.754 252.869 144.316 252.885 142.624 252.893C141.778 252.897 141.119 252.899 140.673 252.9H139.327C138.881 252.899 138.222 252.897 137.376 252.893C135.684 252.885 133.246 252.869 130.271 252.837C124.317 252.772 116.229 252.643 107.676 252.385C99.1086 252.127 90.1458 251.741 82.42 251.169C74.4674 250.581 68.5672 249.84 65.6487 249.053C63.0255 248.32 60.632 246.914 58.6979 244.972C56.8519 243.117 55.4839 240.833 54.7115 238.321C52.0386 223.112 50.7418 207.687 50.8374 192.238L50.8375 192.136C50.7626 176.75 52.0686 161.39 54.7394 146.245C55.4392 143.597 56.7937 141.173 58.6762 139.204C60.606 137.184 63.023 135.714 65.6863 134.937C68.6177 134.154 74.5014 133.417 82.42 132.831C90.1458 132.259 99.1086 131.873 107.676 131.615C116.229 131.357 124.317 131.228 130.271 131.163C133.246 131.131 135.684 131.115 137.376 131.107C138.222 131.103 138.881 131.101 139.327 131.1L139.991 131.099L140 122.049Z" fill="white"/>
</g>
<path d="M90.3195 217.79C85.0528 217.79 80.3128 216.658 76.0995 214.393C71.9388 212.076 68.6472 208.784 66.2245 204.518C63.8545 200.199 62.6695 195.17 62.6695 189.429C62.6695 183.688 63.8545 178.685 66.2245 174.419C68.6472 170.1 71.9388 166.809 76.0995 164.544C80.3128 162.227 85.0528 161.068 90.3195 161.068C93.9008 161.068 97.0872 161.489 99.8785 162.332C102.722 163.175 105.54 164.386 108.331 165.966C109.49 166.598 110.069 167.599 110.069 168.968C110.069 169.758 109.78 170.469 109.2 171.101C108.621 171.68 107.857 171.97 106.909 171.97C106.383 171.97 105.909 171.865 105.487 171.654C103.17 170.443 100.905 169.521 98.6935 168.889C96.4815 168.257 93.9272 167.941 91.0305 167.941C86.5012 167.941 82.6302 168.889 79.4175 170.785C76.2575 172.628 73.8612 175.183 72.2285 178.448C70.6485 181.661 69.8585 185.321 69.8585 189.429C69.8585 193.537 70.6485 197.224 72.2285 200.489C73.8612 203.702 76.2575 206.256 79.4175 208.152C82.6302 209.995 86.5012 210.917 91.0305 210.917C93.9272 210.917 96.4815 210.601 98.6935 209.969C100.905 209.337 103.17 208.415 105.487 207.204C105.909 206.993 106.383 206.888 106.909 206.888C107.857 206.888 108.621 207.178 109.2 207.757C109.78 208.336 110.069 209.047 110.069 209.89C110.069 211.259 109.49 212.26 108.331 212.892C105.54 214.472 102.722 215.683 99.8785 216.526C97.0872 217.369 93.9008 217.79 90.3195 217.79ZM143.827 217.79C137.139 217.79 130.871 216.526 125.025 213.998C124.393 213.735 123.867 213.313 123.445 212.734C123.024 212.102 122.813 211.444 122.813 210.759C122.813 209.864 123.103 209.1 123.682 208.468C124.314 207.783 125.104 207.441 126.052 207.441C126.579 207.441 127.079 207.546 127.553 207.757C132.399 209.916 137.586 210.996 143.116 210.996C152.333 210.996 156.941 207.968 156.941 201.911C156.941 200.331 156.336 199.014 155.124 197.961C153.966 196.908 152.517 196.091 150.779 195.512C149.041 194.88 146.566 194.143 143.353 193.3C139.087 192.194 135.638 191.141 133.004 190.14C130.371 189.087 128.106 187.533 126.21 185.479C124.314 183.425 123.366 180.686 123.366 177.263C123.366 174.261 124.156 171.549 125.736 169.126C127.316 166.651 129.634 164.702 132.688 163.28C135.796 161.805 139.509 161.068 143.827 161.068C149.621 161.068 154.861 161.937 159.548 163.675C161.023 164.202 161.76 165.255 161.76 166.835C161.76 167.678 161.471 168.441 160.891 169.126C160.312 169.811 159.548 170.153 158.6 170.153C158.284 170.153 157.863 170.048 157.336 169.837C153.228 168.415 148.989 167.704 144.617 167.704C140.457 167.704 137.06 168.494 134.426 170.074C131.846 171.654 130.555 173.866 130.555 176.71C130.555 178.606 131.161 180.16 132.372 181.371C133.636 182.53 135.19 183.451 137.033 184.136C138.929 184.768 141.484 185.453 144.696 186.19C148.857 187.191 152.201 188.191 154.729 189.192C157.31 190.193 159.496 191.746 161.286 193.853C163.13 195.96 164.051 198.804 164.051 202.385C164.051 205.334 163.209 207.994 161.523 210.364C159.838 212.681 157.468 214.498 154.413 215.815C151.359 217.132 147.83 217.79 143.827 217.79ZM198.038 217.79C191.349 217.79 185.082 216.526 179.236 213.998C178.604 213.735 178.077 213.313 177.656 212.734C177.235 212.102 177.024 211.444 177.024 210.759C177.024 209.864 177.314 209.1 177.893 208.468C178.525 207.783 179.315 207.441 180.263 207.441C180.79 207.441 181.29 207.546 181.764 207.757C186.609 209.916 191.797 210.996 197.327 210.996C206.544 210.996 211.152 207.968 211.152 201.911C211.152 200.331 210.546 199.014 209.335 197.961C208.176 196.908 206.728 196.091 204.99 195.512C203.252 194.88 200.777 194.143 197.564 193.3C193.298 192.194 189.848 191.141 187.215 190.14C184.582 189.087 182.317 187.533 180.421 185.479C178.525 183.425 177.577 180.686 177.577 177.263C177.577 174.261 178.367 171.549 179.947 169.126C181.527 166.651 183.844 164.702 186.899 163.28C190.006 161.805 193.719 161.068 198.038 161.068C203.831 161.068 209.072 161.937 213.759 163.675C215.234 164.202 215.971 165.255 215.971 166.835C215.971 167.678 215.681 168.441 215.102 169.126C214.523 169.811 213.759 170.153 212.811 170.153C212.495 170.153 212.074 170.048 211.547 169.837C207.439 168.415 203.199 167.704 198.828 167.704C194.667 167.704 191.27 168.494 188.637 170.074C186.056 171.654 184.766 173.866 184.766 176.71C184.766 178.606 185.372 180.16 186.583 181.371C187.847 182.53 189.401 183.451 191.244 184.136C193.14 184.768 195.694 185.453 198.907 186.19C203.068 187.191 206.412 188.191 208.94 189.192C211.521 190.193 213.706 191.746 215.497 193.853C217.34 195.96 218.262 198.804 218.262 202.385C218.262 205.334 217.419 207.994 215.734 210.364C214.049 212.681 211.679 214.498 208.624 215.815C205.569 217.132 202.041 217.79 198.038 217.79Z" fill="white"/>
<path d="M76.0995 214.393L75.1263 216.14L75.1394 216.148L75.1526 216.155L76.0995 214.393ZM66.2245 204.518L64.4712 205.48L64.4782 205.493L64.4854 205.506L66.2245 204.518ZM66.2245 174.419L64.4802 173.44L64.4762 173.448L66.2245 174.419ZM76.0995 164.544L77.0556 166.301L77.0633 166.296L76.0995 164.544ZM99.8785 162.332L99.3005 164.247L99.3103 164.25L99.8785 162.332ZM108.331 165.966L107.346 167.707L107.36 167.714L107.374 167.722L108.331 165.966ZM109.2 171.101L110.615 172.515L110.645 172.484L110.675 172.452L109.2 171.101ZM105.487 171.654L104.561 173.426L104.577 173.435L104.593 173.443L105.487 171.654ZM98.6935 168.889L99.2429 166.966L99.2429 166.966L98.6935 168.889ZM79.4175 170.785L80.4253 172.513L80.434 172.507L79.4175 170.785ZM72.2285 178.448L70.4396 177.554L70.4338 177.565L72.2285 178.448ZM72.2285 200.489L70.4282 201.36L70.4367 201.378L70.4455 201.395L72.2285 200.489ZM79.4175 208.152L78.3885 209.867L78.4052 209.877L78.4222 209.887L79.4175 208.152ZM98.6935 209.969L99.2429 211.892L99.2429 211.892L98.6935 209.969ZM105.487 207.204L104.593 205.415L104.577 205.423L104.561 205.432L105.487 207.204ZM109.2 207.757L110.615 206.343L110.615 206.343L109.2 207.757ZM108.331 212.892L107.374 211.136L107.36 211.144L107.346 211.151L108.331 212.892ZM99.8785 216.526L99.3103 214.608L99.3005 214.611L99.8785 216.526ZM90.3195 215.79C85.3492 215.79 80.94 214.724 77.0464 212.631L75.1526 216.155C79.6856 218.591 84.7564 219.79 90.3195 219.79V215.79ZM77.0727 212.646C73.242 210.512 70.2111 207.488 67.9636 203.53L64.4854 205.506C67.0832 210.08 70.6356 213.639 75.1263 216.14L77.0727 212.646ZM67.9778 203.556C65.7946 199.577 64.6695 194.889 64.6695 189.429H60.6695C60.6695 195.45 61.9144 200.821 64.4712 205.48L67.9778 203.556ZM64.6695 189.429C64.6695 183.968 65.7948 179.311 67.9728 175.39L64.4762 173.448C61.9142 178.059 60.6695 183.409 60.6695 189.429H64.6695ZM67.9688 175.397C70.216 171.392 73.2411 168.377 77.0556 166.301L75.1433 162.787C70.6366 165.24 67.0783 168.809 64.4802 173.44L67.9688 175.397ZM77.0633 166.296C80.9538 164.157 85.3569 163.068 90.3195 163.068V159.068C84.7487 159.068 79.6718 160.297 75.1357 162.792L77.0633 166.296ZM90.3195 163.068C93.7479 163.068 96.7336 163.472 99.3005 164.247L100.457 160.417C97.4407 159.507 94.0538 159.068 90.3195 159.068V163.068ZM99.3103 164.25C101.998 165.046 104.676 166.195 107.346 167.707L109.317 164.225C106.404 162.577 103.447 161.303 100.447 160.414L99.3103 164.25ZM107.374 167.722C107.678 167.888 107.823 168.053 107.904 168.193C107.987 168.337 108.069 168.57 108.069 168.968H112.069C112.069 167.997 111.862 167.045 111.366 166.188C110.868 165.328 110.144 164.676 109.289 164.21L107.374 167.722ZM108.069 168.968C108.069 169.213 107.999 169.452 107.726 169.75L110.675 172.452C111.561 171.486 112.069 170.303 112.069 168.968H108.069ZM107.786 169.687C107.641 169.832 107.417 169.97 106.909 169.97V173.97C108.298 173.97 109.601 173.529 110.615 172.515L107.786 169.687ZM106.909 169.97C106.656 169.97 106.494 169.921 106.382 169.865L104.593 173.443C105.323 173.808 106.109 173.97 106.909 173.97V169.97ZM106.414 169.882C103.992 168.616 101.602 167.64 99.2429 166.966L98.1441 170.812C100.209 171.402 102.348 172.27 104.561 173.426L106.414 169.882ZM99.2429 166.966C96.8131 166.272 94.0673 165.941 91.0305 165.941V169.941C93.7871 169.941 96.1499 170.242 98.1441 170.812L99.2429 166.966ZM91.0305 165.941C86.2201 165.941 81.9814 166.95 78.401 169.063L80.434 172.507C83.2789 170.828 86.7822 169.941 91.0305 169.941V165.941ZM78.4098 169.057C74.9147 171.096 72.2466 173.94 70.4396 177.554L74.0173 179.342C75.4758 176.426 77.6003 174.16 80.4252 172.513L78.4098 169.057ZM70.4338 177.565C68.7001 181.091 67.8585 185.06 67.8585 189.429H71.8585C71.8585 185.582 72.5969 182.231 74.0232 179.331L70.4338 177.565ZM67.8585 189.429C67.8585 193.799 68.7003 197.789 70.4282 201.36L74.0288 199.618C72.5967 196.658 71.8585 193.275 71.8585 189.429H67.8585ZM70.4455 201.395C72.2525 204.951 74.9138 207.782 78.3885 209.867L80.4465 206.437C77.6011 204.73 75.4698 202.453 74.0115 199.583L70.4455 201.395ZM78.4222 209.887C81.9985 211.939 86.2293 212.917 91.0305 212.917V208.917C86.773 208.917 83.2618 208.052 80.4128 206.417L78.4222 209.887ZM91.0305 212.917C94.0673 212.917 96.8131 212.586 99.2429 211.892L98.1441 208.046C96.1499 208.616 93.7871 208.917 91.0305 208.917V212.917ZM99.2429 211.892C101.602 211.218 103.992 210.242 106.414 208.976L104.561 205.432C102.348 206.588 100.209 207.456 98.1441 208.046L99.2429 211.892ZM106.382 208.993C106.494 208.937 106.656 208.888 106.909 208.888V204.888C106.109 204.888 105.323 205.05 104.593 205.415L106.382 208.993ZM106.909 208.888C107.417 208.888 107.641 209.026 107.786 209.171L110.615 206.343C109.601 205.329 108.298 204.888 106.909 204.888V208.888ZM107.786 209.171C107.979 209.364 108.069 209.561 108.069 209.89H112.069C112.069 208.534 111.581 207.309 110.615 206.343L107.786 209.171ZM108.069 209.89C108.069 210.288 107.987 210.521 107.904 210.665C107.823 210.805 107.678 210.97 107.374 211.136L109.289 214.648C110.144 214.182 110.868 213.53 111.366 212.67C111.862 211.813 112.069 210.861 112.069 209.89H108.069ZM107.346 211.151C104.676 212.663 101.998 213.812 99.3103 214.608L100.447 218.444C103.447 217.555 106.404 216.281 109.317 214.633L107.346 211.151ZM99.3005 214.611C96.7336 215.386 93.7479 215.79 90.3195 215.79V219.79C94.0538 219.79 97.4407 219.351 100.457 218.441L99.3005 214.611ZM125.025 213.998L125.819 212.162L125.807 212.157L125.794 212.152L125.025 213.998ZM123.445 212.734L121.781 213.843L121.804 213.877L121.828 213.91L123.445 212.734ZM123.682 208.468L122.213 207.111L122.208 207.117L123.682 208.468ZM127.553 207.757L128.367 205.93L128.365 205.929L127.553 207.757ZM155.124 197.961L153.779 199.441L153.795 199.456L153.812 199.47L155.124 197.961ZM150.779 195.512L150.096 197.392L150.121 197.401L150.147 197.409L150.779 195.512ZM143.353 193.3L143.861 191.365L143.855 191.364L143.353 193.3ZM133.004 190.14L132.261 191.997L132.278 192.003L132.294 192.01L133.004 190.14ZM126.21 185.479L124.741 186.836L124.741 186.836L126.21 185.479ZM125.736 169.126L127.411 170.219L127.417 170.21L127.422 170.202L125.736 169.126ZM132.688 163.28L133.532 165.093L133.539 165.09L133.546 165.087L132.688 163.28ZM159.548 163.675L158.853 165.55L158.864 165.554L158.876 165.558L159.548 163.675ZM160.891 169.126L162.418 170.418L162.418 170.418L160.891 169.126ZM157.336 169.837L158.079 167.98L158.035 167.962L157.99 167.947L157.336 169.837ZM134.426 170.074L133.397 168.359L133.39 168.364L133.382 168.368L134.426 170.074ZM132.372 181.371L130.958 182.785L130.989 182.816L131.021 182.845L132.372 181.371ZM137.033 184.136L136.337 186.011L136.369 186.023L136.401 186.033L137.033 184.136ZM144.696 186.19L145.164 184.245L145.154 184.243L145.144 184.241L144.696 186.19ZM154.729 189.192L153.993 191.052L154.006 191.057L154.729 189.192ZM161.286 193.853L159.762 195.148L159.772 195.159L159.781 195.17L161.286 193.853ZM161.523 210.364L163.141 211.54L163.147 211.532L163.153 211.523L161.523 210.364ZM154.413 215.815L155.205 217.652L155.205 217.652L154.413 215.815ZM143.827 215.79C137.398 215.79 131.402 214.577 125.819 212.162L124.231 215.834C130.34 218.475 136.879 219.79 143.827 219.79V215.79ZM125.794 212.152C125.517 212.036 125.279 211.854 125.063 211.558L121.828 213.91C122.455 214.772 123.269 215.433 124.256 215.844L125.794 212.152ZM125.109 211.625C124.882 211.284 124.813 211.006 124.813 210.759H120.813C120.813 211.881 121.166 212.92 121.781 213.843L125.109 211.625ZM124.813 210.759C124.813 210.34 124.931 210.065 125.156 209.819L122.208 207.117C121.274 208.135 120.813 209.388 120.813 210.759H124.813ZM125.152 209.825C125.398 209.558 125.651 209.441 126.052 209.441V205.441C124.557 205.441 123.231 206.009 122.213 207.111L125.152 209.825ZM126.052 209.441C126.303 209.441 126.527 209.489 126.741 209.585L128.365 205.929C127.632 205.603 126.854 205.441 126.052 205.441V209.441ZM126.739 209.584C131.852 211.862 137.318 212.996 143.116 212.996V208.996C137.855 208.996 132.946 207.97 128.367 205.93L126.739 209.584ZM143.116 212.996C147.88 212.996 151.8 212.225 154.583 210.396C157.513 208.471 158.941 205.534 158.941 201.911H154.941C154.941 204.344 154.065 205.95 152.387 207.053C150.561 208.253 147.569 208.996 143.116 208.996V212.996ZM158.941 201.911C158.941 199.742 158.077 197.878 156.437 196.452L153.812 199.47C154.594 200.151 154.941 200.92 154.941 201.911H158.941ZM156.47 196.481C155.073 195.211 153.369 194.267 151.412 193.615L150.147 197.409C151.665 197.915 152.858 198.604 153.779 199.441L156.47 196.481ZM151.463 193.632C149.639 192.969 147.094 192.214 143.861 191.365L142.846 195.235C146.038 196.072 148.444 196.791 150.096 197.392L151.463 193.632ZM143.855 191.364C139.625 190.267 136.253 189.235 133.715 188.27L132.294 192.01C135.022 193.046 138.549 194.121 142.851 195.236L143.855 191.364ZM133.747 188.283C131.386 187.339 129.371 185.954 127.68 184.122L124.741 186.836C126.842 189.112 129.356 190.835 132.261 191.997L133.747 188.283ZM127.68 184.122C126.198 182.517 125.366 180.302 125.366 177.263H121.366C121.366 181.07 122.431 184.333 124.741 186.836L127.68 184.122ZM125.366 177.263C125.366 174.633 126.052 172.303 127.411 170.219L124.061 168.033C122.261 170.794 121.366 173.889 121.366 177.263H125.366ZM127.422 170.202C128.768 168.093 130.771 166.379 133.532 165.093L131.844 161.467C128.497 163.025 125.864 165.209 124.05 168.05L127.422 170.202ZM133.546 165.087C136.326 163.768 139.731 163.068 143.827 163.068V159.068C139.286 159.068 135.265 159.843 131.831 161.473L133.546 165.087ZM143.827 163.068C149.42 163.068 154.42 163.907 158.853 165.55L160.243 161.8C155.301 159.967 149.821 159.068 143.827 159.068V163.068ZM158.876 165.558C159.309 165.713 159.486 165.888 159.569 166.007C159.653 166.127 159.76 166.36 159.76 166.835H163.76C163.76 165.73 163.499 164.646 162.846 163.713C162.191 162.778 161.262 162.163 160.221 161.792L158.876 165.558ZM159.76 166.835C159.76 167.173 159.659 167.485 159.364 167.834L162.418 170.418C163.282 169.397 163.76 168.183 163.76 166.835H159.76ZM159.364 167.834C159.189 168.041 158.998 168.153 158.6 168.153V172.153C160.098 172.153 161.435 171.58 162.418 170.418L159.364 167.834ZM158.6 168.153C158.654 168.153 158.639 168.16 158.532 168.134C158.431 168.108 158.282 168.061 158.079 167.98L156.593 171.694C157.199 171.936 157.902 172.153 158.6 172.153V168.153ZM157.99 167.947C153.671 166.452 149.21 165.704 144.617 165.704V169.704C148.767 169.704 152.786 170.378 156.682 171.727L157.99 167.947ZM144.617 165.704C140.218 165.704 136.433 166.538 133.397 168.359L135.455 171.789C137.686 170.45 140.695 169.704 144.617 169.704V165.704ZM133.382 168.368C130.253 170.284 128.555 173.118 128.555 176.71H132.555C132.555 174.614 133.438 173.024 135.47 171.78L133.382 168.368ZM128.555 176.71C128.555 179.074 129.33 181.157 130.958 182.785L133.786 179.957C132.992 179.162 132.555 178.138 132.555 176.71H128.555ZM131.021 182.845C132.501 184.202 134.287 185.249 136.337 186.011L137.73 182.261C136.093 181.653 134.771 180.857 133.724 179.897L131.021 182.845ZM136.401 186.033C138.384 186.694 141.008 187.396 144.249 188.139L145.144 184.241C141.959 183.51 139.475 182.842 137.666 182.239L136.401 186.033ZM144.229 188.135C148.343 189.124 151.587 190.099 153.993 191.052L155.465 187.332C152.815 186.283 149.37 185.257 145.164 184.245L144.229 188.135ZM154.006 191.057C156.277 191.937 158.187 193.295 159.762 195.148L162.81 192.558C160.804 190.197 158.343 188.448 155.452 187.327L154.006 191.057ZM159.781 195.17C161.224 196.82 162.051 199.149 162.051 202.385H166.051C166.051 198.458 165.035 195.1 162.791 192.536L159.781 195.17ZM162.051 202.385C162.051 204.925 161.334 207.179 159.893 209.205L163.153 211.523C165.083 208.809 166.051 205.743 166.051 202.385H162.051ZM159.906 209.188C158.463 211.171 156.4 212.781 153.622 213.978L155.205 217.652C158.535 216.216 161.212 214.192 163.141 211.54L159.906 209.188ZM153.622 213.978C150.862 215.168 147.612 215.79 143.827 215.79V219.79C148.048 219.79 151.855 219.096 155.205 217.652L153.622 213.978ZM179.236 213.998L180.03 212.162L180.017 212.157L180.005 212.152L179.236 213.998ZM177.656 212.734L175.992 213.843L176.014 213.877L176.038 213.91L177.656 212.734ZM177.893 208.468L176.423 207.111L176.419 207.117L177.893 208.468ZM181.764 207.757L182.578 205.93L182.576 205.929L181.764 207.757ZM209.335 197.961L207.989 199.441L208.006 199.456L208.022 199.47L209.335 197.961ZM204.99 195.512L204.306 197.392L204.332 197.401L204.357 197.409L204.99 195.512ZM197.564 193.3L198.071 191.365L198.066 191.364L197.564 193.3ZM187.215 190.14L186.472 191.997L186.488 192.003L186.504 192.01L187.215 190.14ZM180.421 185.479L178.951 186.836L178.951 186.836L180.421 185.479ZM179.947 169.126L181.622 170.219L181.627 170.21L181.633 170.202L179.947 169.126ZM186.899 163.28L187.743 165.093L187.75 165.09L187.756 165.087L186.899 163.28ZM213.759 163.675L213.064 165.55L213.075 165.554L213.086 165.558L213.759 163.675ZM215.102 169.126L216.629 170.418L216.629 170.418L215.102 169.126ZM211.547 169.837L212.29 167.98L212.246 167.962L212.201 167.947L211.547 169.837ZM188.637 170.074L187.608 168.359L187.6 168.364L187.593 168.368L188.637 170.074ZM186.583 181.371L185.169 182.785L185.199 182.816L185.231 182.845L186.583 181.371ZM191.244 184.136L190.547 186.011L190.579 186.023L190.611 186.033L191.244 184.136ZM198.907 186.19L199.375 184.245L199.364 184.243L199.354 184.241L198.907 186.19ZM208.94 189.192L208.204 191.052L208.217 191.057L208.94 189.192ZM215.497 193.853L213.973 195.148L213.982 195.159L213.992 195.17L215.497 193.853ZM215.734 210.364L217.351 211.54L217.358 211.532L217.364 211.523L215.734 210.364ZM208.624 215.815L209.416 217.652L209.416 217.652L208.624 215.815ZM198.038 215.79C191.608 215.79 185.613 214.577 180.03 212.162L178.442 215.834C184.551 218.475 191.09 219.79 198.038 219.79V215.79ZM180.005 212.152C179.728 212.036 179.489 211.854 179.273 211.558L176.038 213.91C176.665 214.772 177.48 215.433 178.467 215.844L180.005 212.152ZM179.32 211.625C179.093 211.284 179.024 211.006 179.024 210.759H175.024C175.024 211.881 175.376 212.92 175.992 213.843L179.32 211.625ZM179.024 210.759C179.024 210.34 179.142 210.065 179.367 209.819L176.419 207.117C175.485 208.135 175.024 209.388 175.024 210.759H179.024ZM179.362 209.825C179.608 209.558 179.862 209.441 180.263 209.441V205.441C178.768 205.441 177.441 206.009 176.423 207.111L179.362 209.825ZM180.263 209.441C180.514 209.441 180.737 209.489 180.952 209.585L182.576 205.929C181.842 205.603 181.065 205.441 180.263 205.441V209.441ZM180.95 209.584C186.062 211.862 191.529 212.996 197.327 212.996V208.996C192.065 208.996 187.156 207.97 182.578 205.93L180.95 209.584ZM197.327 212.996C202.091 212.996 206.011 212.225 208.794 210.396C211.723 208.471 213.152 205.534 213.152 201.911H209.152C209.152 204.344 208.276 205.95 206.597 207.053C204.772 208.253 201.78 208.996 197.327 208.996V212.996ZM213.152 201.911C213.152 199.742 212.287 197.878 210.647 196.452L208.022 199.47C208.805 200.151 209.152 200.92 209.152 201.911H213.152ZM210.68 196.481C209.284 195.211 207.58 194.267 205.622 193.615L204.357 197.409C205.876 197.915 207.069 198.604 207.989 199.441L210.68 196.481ZM205.673 193.632C203.849 192.969 201.305 192.214 198.071 191.365L197.056 195.235C200.248 196.072 202.654 196.791 204.306 197.392L205.673 193.632ZM198.066 191.364C193.836 190.267 190.464 189.235 187.925 188.27L186.504 192.01C189.233 193.046 192.76 194.121 197.062 195.236L198.066 191.364ZM187.958 188.283C185.597 187.339 183.581 185.954 181.89 184.122L178.951 186.836C181.052 189.112 183.566 190.835 186.472 191.997L187.958 188.283ZM181.89 184.122C180.408 182.517 179.577 180.302 179.577 177.263H175.577C175.577 181.07 176.641 184.333 178.951 186.836L181.89 184.122ZM179.577 177.263C179.577 174.633 180.262 172.303 181.622 170.219L178.272 168.033C176.471 170.794 175.577 173.889 175.577 177.263H179.577ZM181.633 170.202C182.979 168.093 184.981 166.379 187.743 165.093L186.055 161.467C182.707 163.025 180.075 165.209 178.261 168.05L181.633 170.202ZM187.756 165.087C190.536 163.768 193.942 163.068 198.038 163.068V159.068C193.496 159.068 189.476 159.843 186.041 161.473L187.756 165.087ZM198.038 163.068C203.631 163.068 208.631 163.907 213.064 165.55L214.454 161.8C209.512 159.967 204.031 159.068 198.038 159.068V163.068ZM213.086 165.558C213.52 165.713 213.696 165.888 213.779 166.007C213.864 166.127 213.971 166.36 213.971 166.835H217.971C217.971 165.73 217.709 164.646 217.056 163.713C216.402 162.778 215.473 162.163 214.432 161.792L213.086 165.558ZM213.971 166.835C213.971 167.173 213.87 167.485 213.575 167.834L216.629 170.418C217.492 169.397 217.971 168.183 217.971 166.835H213.971ZM213.575 167.834C213.4 168.041 213.209 168.153 212.811 168.153V172.153C214.309 172.153 215.645 171.58 216.629 170.418L213.575 167.834ZM212.811 168.153C212.864 168.153 212.85 168.16 212.743 168.134C212.642 168.108 212.493 168.061 212.29 167.98L210.804 171.694C211.409 171.936 212.113 172.153 212.811 172.153V168.153ZM212.201 167.947C207.881 166.452 203.421 165.704 198.828 165.704V169.704C202.978 169.704 206.996 170.378 210.893 171.727L212.201 167.947ZM198.828 165.704C194.429 165.704 190.644 166.538 187.608 168.359L189.666 171.789C191.897 170.45 194.906 169.704 198.828 169.704V165.704ZM187.593 168.368C184.464 170.284 182.766 173.118 182.766 176.71H186.766C186.766 174.614 187.648 173.024 189.681 171.78L187.593 168.368ZM182.766 176.71C182.766 179.074 183.54 181.157 185.169 182.785L187.997 179.957C187.203 179.162 186.766 178.138 186.766 176.71H182.766ZM185.231 182.845C186.712 184.202 188.497 185.249 190.547 186.011L191.94 182.261C190.304 181.653 188.982 180.857 187.934 179.897L185.231 182.845ZM190.611 186.033C192.594 186.694 195.219 187.396 198.459 188.139L199.354 184.241C196.17 183.51 193.685 182.842 191.876 182.239L190.611 186.033ZM198.439 188.135C202.554 189.124 205.798 190.099 208.204 191.052L209.676 187.332C207.026 186.283 203.581 185.257 199.375 184.245L198.439 188.135ZM208.217 191.057C210.488 191.937 212.398 193.295 213.973 195.148L217.021 192.558C215.014 190.197 212.553 188.448 209.663 187.327L208.217 191.057ZM213.992 195.17C215.435 196.82 216.262 199.149 216.262 202.385H220.262C220.262 198.458 219.245 195.1 217.002 192.536L213.992 195.17ZM216.262 202.385C216.262 204.925 215.545 207.179 214.104 209.205L217.364 211.523C219.293 208.809 220.262 205.743 220.262 202.385H216.262ZM214.116 209.188C212.674 211.171 210.611 212.781 207.832 213.978L209.416 217.652C212.746 216.216 215.423 214.192 217.351 211.54L214.116 209.188ZM207.832 213.978C205.073 215.168 201.822 215.79 198.038 215.79V219.79C202.259 219.79 206.065 219.096 209.416 217.652L207.832 213.978Z" fill="white"/>
<ellipse opacity="0.05" cx="-10.5" cy="-12.5" rx="223.5" ry="214.5" fill="url(#paint2_linear_204_9)"/>
<ellipse opacity="0.05" cx="-10.5" cy="-12.5" rx="140.5" ry="134.5" fill="url(#paint3_linear_204_9)"/>
<g filter="url(#filter1_d_204_9)">
<path d="M276 102H196C183.85 102 174 92.1503 174 80V0L276 102Z" fill="url(#paint4_linear_204_9)"/>
</g>
</g>
<defs>
<filter id="filter0_f_204_9" x="13" y="110" width="256" height="162" filterUnits="userSpaceOnUse" color-interpolation-filters="sRGB">
<feFlood flood-opacity="0" result="BackgroundImageFix"/>
<feBlend mode="normal" in="SourceGraphic" in2="BackgroundImageFix" result="shape"/>
<feGaussianBlur stdDeviation="19.5" result="effect1_foregroundBlur_204_9"/>
</filter>
<filter id="filter1_d_204_9" x="151" y="-24" width="152" height="152" filterUnits="userSpaceOnUse" color-interpolation-filters="sRGB">
<feFlood flood-opacity="0" result="BackgroundImageFix"/>
<feColorMatrix in="SourceAlpha" type="matrix" values="0 0 0 0 0 0 0 0 0 0 0 0 0 0 0 0 0 0 127 0" result="hardAlpha"/>
<feOffset dx="2" dy="1"/>
<feGaussianBlur stdDeviation="12.5"/>
<feColorMatrix type="matrix" values="0 0 0 0 0 0 0 0 0 0 0 0 0 0 0 0 0 0 0.33 0"/>
<feBlend mode="normal" in2="BackgroundImageFix" result="effect1_dropShadow_204_9"/>
<feBlend mode="normal" in="SourceGraphic" in2="effect1_dropShadow_204_9" result="shape"/>
</filter>
<linearGradient id="paint0_linear_204_9" x1="140" y1="0" x2="140" y2="308" gradientUnits="userSpaceOnUse">
<stop stop-color="#FF7979"/>
<stop offset="1" stop-color="#E85555"/>
</linearGradient>
<linearGradient id="paint1_linear_204_9" x1="140" y1="0" x2="140" y2="308" gradientUnits="userSpaceOnUse">
<stop stop-color="#6A88F2"/>
<stop offset="0.942892" stop-color="#214CE5"/>
</linearGradient>
<linearGradient id="paint2_linear_204_9" x1="5.72772" y1="-5.12887" x2="73.5069" y2="174.758" gradientUnits="userSpaceOnUse">
<stop stop-color="white" stop-opacity="0"/>
<stop offset="1" stop-color="white"/>
</linearGradient>
<linearGradient id="paint3_linear_204_9" x1="-0.298683" y1="-7.87801" x2="42.1204" y2="104.989" gradientUnits="userSpaceOnUse">
<stop stop-color="white" stop-opacity="0"/>
<stop offset="1" stop-color="white"/>
</linearGradient>
<linearGradient id="paint4_linear_204_9" x1="225" y1="0" x2="225" y2="102" gradientUnits="userSpaceOnUse">
<stop stop-color="#859FFA"/>
<stop offset="1" stop-color="#214CE5"/>
</linearGradient>
</defs>
</svg>
