<svg width="474" height="388" viewBox="0 0 474 388" fill="none" xmlns="http://www.w3.org/2000/svg">
<mask id="path-1-inside-1_204_64" fill="white">
<path fill-rule="evenodd" clip-rule="evenodd" d="M146.577 5C109.808 5 80.001 34.8072 80.001 71.5763V124.592C80.001 125.049 80.0125 125.503 80.0352 125.954C80.001 131.225 80.001 136.952 80.001 143.204V201.483C80.001 238.77 80.001 257.413 87.2574 271.654C93.6403 284.181 103.825 294.366 116.352 300.749C130.594 308.006 149.237 308.006 186.523 308.006H287.477C324.763 308.006 343.406 308.006 357.648 300.749C370.175 294.366 380.36 284.181 386.743 271.654C393.999 257.413 393.999 238.77 393.999 201.484V143.204C393.999 105.917 393.999 87.2743 386.743 73.0329C380.36 60.5057 370.175 50.3208 357.648 43.9379C343.406 36.6815 324.763 36.6815 287.477 36.6815H285.63C253.91 36.6815 223.832 5 192.112 5V5H146.577Z"/>
</mask>
<path fill-rule="evenodd" clip-rule="evenodd" d="M146.577 5C109.808 5 80.001 34.8072 80.001 71.5763V124.592C80.001 125.049 80.0125 125.503 80.0352 125.954C80.001 131.225 80.001 136.952 80.001 143.204V201.483C80.001 238.77 80.001 257.413 87.2574 271.654C93.6403 284.181 103.825 294.366 116.352 300.749C130.594 308.006 149.237 308.006 186.523 308.006H287.477C324.763 308.006 343.406 308.006 357.648 300.749C370.175 294.366 380.36 284.181 386.743 271.654C393.999 257.413 393.999 238.77 393.999 201.484V143.204C393.999 105.917 393.999 87.2743 386.743 73.0329C380.36 60.5057 370.175 50.3208 357.648 43.9379C343.406 36.6815 324.763 36.6815 287.477 36.6815H285.63C253.91 36.6815 223.832 5 192.112 5V5H146.577Z" fill="#D9D9D9"/>
<path fill-rule="evenodd" clip-rule="evenodd" d="M146.577 5C109.808 5 80.001 34.8072 80.001 71.5763V124.592C80.001 125.049 80.0125 125.503 80.0352 125.954C80.001 131.225 80.001 136.952 80.001 143.204V201.483C80.001 238.77 80.001 257.413 87.2574 271.654C93.6403 284.181 103.825 294.366 116.352 300.749C130.594 308.006 149.237 308.006 186.523 308.006H287.477C324.763 308.006 343.406 308.006 357.648 300.749C370.175 294.366 380.36 284.181 386.743 271.654C393.999 257.413 393.999 238.77 393.999 201.484V143.204C393.999 105.917 393.999 87.2743 386.743 73.0329C380.36 60.5057 370.175 50.3208 357.648 43.9379C343.406 36.6815 324.763 36.6815 287.477 36.6815H285.63C253.91 36.6815 223.832 5 192.112 5V5H146.577Z" fill="url(#paint0_radial_204_64)"/>
<path d="M80.0352 125.954L82.6982 125.972L82.6987 125.896L82.6949 125.82L80.0352 125.954ZM87.2574 271.654L89.6302 270.445L89.6302 270.445L87.2574 271.654ZM116.352 300.749L115.143 303.122L115.143 303.122L116.352 300.749ZM357.648 300.749L358.857 303.122L358.857 303.122L357.648 300.749ZM386.743 271.654L384.37 270.445L384.37 270.445L386.743 271.654ZM386.743 73.0329L384.37 74.2418L384.37 74.2419L386.743 73.0329ZM357.648 43.9379L358.857 41.5651L358.857 41.5651L357.648 43.9379ZM82.664 71.5763C82.664 36.278 111.279 7.66305 146.577 7.66305V2.33695C108.337 2.33695 77.3379 33.3364 77.3379 71.5763H82.664ZM82.664 124.592V71.5763H77.3379V124.592H82.664ZM82.6949 125.82C82.6744 125.414 82.664 125.004 82.664 124.592H77.3379C77.3379 125.094 77.3506 125.593 77.3755 126.088L82.6949 125.82ZM82.6641 143.204C82.6641 136.95 82.6641 131.232 82.6982 125.972L77.3722 125.937C77.338 131.218 77.338 136.954 77.338 143.204H82.6641ZM82.6641 201.483V143.204H77.338V201.483H82.6641ZM89.6302 270.445C86.2252 263.763 84.4559 255.931 83.5623 244.994C82.6661 234.026 82.6641 220.171 82.6641 201.483H77.338C77.338 220.083 77.3359 234.192 78.2539 245.428C79.1744 256.694 81.0333 265.305 84.8846 272.863L89.6302 270.445ZM117.561 298.376C105.535 292.249 95.7578 282.471 89.6302 270.445L84.8846 272.863C91.5228 285.892 102.115 296.484 115.143 303.122L117.561 298.376ZM186.523 305.343C167.836 305.343 153.981 305.34 143.013 304.444C132.076 303.551 124.244 301.781 117.561 298.376L115.143 303.122C122.702 306.973 131.313 308.832 142.579 309.753C153.814 310.671 167.924 310.669 186.523 310.669V305.343ZM287.477 305.343H186.523V310.669H287.477V305.343ZM356.439 298.376C349.756 301.781 341.925 303.551 330.987 304.444C320.019 305.34 306.164 305.343 287.477 305.343V310.669C306.076 310.669 320.186 310.671 331.421 309.753C342.688 308.832 351.298 306.973 358.857 303.122L356.439 298.376ZM384.37 270.445C378.243 282.471 368.465 292.249 356.439 298.376L358.857 303.122C371.885 296.484 382.477 285.892 389.116 272.863L384.37 270.445ZM391.336 201.484C391.336 220.171 391.334 234.026 390.438 244.994C389.544 255.931 387.775 263.763 384.37 270.445L389.116 272.863C392.967 265.305 394.826 256.694 395.746 245.428C396.664 234.192 396.662 220.083 396.662 201.484H391.336ZM391.336 143.204V201.484H396.662V143.204H391.336ZM384.37 74.2419C387.775 80.9246 389.544 88.7563 390.438 99.6933C391.334 110.661 391.336 124.517 391.336 143.204H396.662C396.662 124.604 396.664 110.495 395.746 99.2596C394.826 87.9932 392.967 79.3826 389.116 71.8238L384.37 74.2419ZM356.439 46.3107C368.465 52.4383 378.243 62.2158 384.37 74.2418L389.116 71.8239C382.477 58.7956 371.885 48.2033 358.857 41.5651L356.439 46.3107ZM287.477 39.3446C306.164 39.3446 320.019 39.3467 330.987 40.2428C341.925 41.1364 349.756 42.9057 356.439 46.3107L358.857 41.5651C351.298 37.7138 342.688 35.8549 331.421 34.9344C320.186 34.0164 306.076 34.0185 287.477 34.0185V39.3446ZM285.63 39.3446H287.477V34.0185H285.63V39.3446ZM146.577 7.66305H192.112V2.33695H146.577V7.66305ZM285.63 34.0185C270.535 34.0185 255.685 26.4678 240.086 18.471C224.786 10.627 208.737 2.33695 192.112 2.33695V7.66305C207.207 7.66305 222.058 15.2137 237.656 23.2106C252.957 31.0545 269.005 39.3446 285.63 39.3446V34.0185Z" fill="url(#paint1_linear_204_64)" mask="url(#path-1-inside-1_204_64)"/>
<path d="M80.0352 125.954L82.6982 125.972L82.6987 125.896L82.6949 125.82L80.0352 125.954ZM87.2574 271.654L89.6302 270.445L89.6302 270.445L87.2574 271.654ZM116.352 300.749L115.143 303.122L115.143 303.122L116.352 300.749ZM357.648 300.749L358.857 303.122L358.857 303.122L357.648 300.749ZM386.743 271.654L384.37 270.445L384.37 270.445L386.743 271.654ZM386.743 73.0329L384.37 74.2418L384.37 74.2419L386.743 73.0329ZM357.648 43.9379L358.857 41.5651L358.857 41.5651L357.648 43.9379ZM82.664 71.5763C82.664 36.278 111.279 7.66305 146.577 7.66305V2.33695C108.337 2.33695 77.3379 33.3364 77.3379 71.5763H82.664ZM82.664 124.592V71.5763H77.3379V124.592H82.664ZM82.6949 125.82C82.6744 125.414 82.664 125.004 82.664 124.592H77.3379C77.3379 125.094 77.3506 125.593 77.3755 126.088L82.6949 125.82ZM82.6641 143.204C82.6641 136.95 82.6641 131.232 82.6982 125.972L77.3722 125.937C77.338 131.218 77.338 136.954 77.338 143.204H82.6641ZM82.6641 201.483V143.204H77.338V201.483H82.6641ZM89.6302 270.445C86.2252 263.763 84.4559 255.931 83.5623 244.994C82.6661 234.026 82.6641 220.171 82.6641 201.483H77.338C77.338 220.083 77.3359 234.192 78.2539 245.428C79.1744 256.694 81.0333 265.305 84.8846 272.863L89.6302 270.445ZM117.561 298.376C105.535 292.249 95.7578 282.471 89.6302 270.445L84.8846 272.863C91.5228 285.892 102.115 296.484 115.143 303.122L117.561 298.376ZM186.523 305.343C167.836 305.343 153.981 305.34 143.013 304.444C132.076 303.551 124.244 301.781 117.561 298.376L115.143 303.122C122.702 306.973 131.313 308.832 142.579 309.753C153.814 310.671 167.924 310.669 186.523 310.669V305.343ZM287.477 305.343H186.523V310.669H287.477V305.343ZM356.439 298.376C349.756 301.781 341.925 303.551 330.987 304.444C320.019 305.34 306.164 305.343 287.477 305.343V310.669C306.076 310.669 320.186 310.671 331.421 309.753C342.688 308.832 351.298 306.973 358.857 303.122L356.439 298.376ZM384.37 270.445C378.243 282.471 368.465 292.249 356.439 298.376L358.857 303.122C371.885 296.484 382.477 285.892 389.116 272.863L384.37 270.445ZM391.336 201.484C391.336 220.171 391.334 234.026 390.438 244.994C389.544 255.931 387.775 263.763 384.37 270.445L389.116 272.863C392.967 265.305 394.826 256.694 395.746 245.428C396.664 234.192 396.662 220.083 396.662 201.484H391.336ZM391.336 143.204V201.484H396.662V143.204H391.336ZM384.37 74.2419C387.775 80.9246 389.544 88.7563 390.438 99.6933C391.334 110.661 391.336 124.517 391.336 143.204H396.662C396.662 124.604 396.664 110.495 395.746 99.2596C394.826 87.9932 392.967 79.3826 389.116 71.8238L384.37 74.2419ZM356.439 46.3107C368.465 52.4383 378.243 62.2158 384.37 74.2418L389.116 71.8239C382.477 58.7956 371.885 48.2033 358.857 41.5651L356.439 46.3107ZM287.477 39.3446C306.164 39.3446 320.019 39.3467 330.987 40.2428C341.925 41.1364 349.756 42.9057 356.439 46.3107L358.857 41.5651C351.298 37.7138 342.688 35.8549 331.421 34.9344C320.186 34.0164 306.076 34.0185 287.477 34.0185V39.3446ZM285.63 39.3446H287.477V34.0185H285.63V39.3446ZM146.577 7.66305H192.112V2.33695H146.577V7.66305ZM285.63 34.0185C270.535 34.0185 255.685 26.4678 240.086 18.471C224.786 10.627 208.737 2.33695 192.112 2.33695V7.66305C207.207 7.66305 222.058 15.2137 237.656 23.2106C252.957 31.0545 269.005 39.3446 285.63 39.3446V34.0185Z" fill="url(#paint2_linear_204_64)" mask="url(#path-1-inside-1_204_64)"/>
<g filter="url(#filter0_f_204_64)">
<rect x="80.001" y="80.5483" width="313.998" height="227.457" rx="66.5763" fill="black" fill-opacity="0.46"/>
</g>
<path d="M80.0009 167.469C80.0009 137.139 79.8029 121.378 85.3229 109.793C90.1784 99.6026 97.8417 91.4269 107.371 86.2347C118.205 80.332 132.988 80.5483 161.352 80.5483H312.648C341.012 80.5483 355.795 80.332 366.629 86.2347C376.158 91.4269 383.822 99.6026 388.677 109.793C394.197 121.378 393.999 137.139 393.999 167.469V221.084C393.999 251.415 394.197 267.176 388.677 278.761C383.822 288.951 376.158 297.127 366.629 302.319C355.795 308.222 341.012 308.006 312.648 308.006H161.352C132.988 308.006 118.205 308.222 107.371 302.319C97.8417 297.127 90.1784 288.951 85.3229 278.761C79.8029 267.176 80.0009 251.415 80.0009 221.084V167.469Z" fill="url(#paint3_radial_204_64)"/>
<path d="M161.352 81.8798H312.648C313.624 81.8798 314.583 81.8796 315.526 81.8793C328.32 81.876 338.164 81.8734 346.107 82.5053C354.622 83.1827 360.812 84.5817 365.992 87.404C375.265 92.4567 382.736 100.419 387.475 110.366C390.13 115.938 391.444 122.582 392.08 131.694C392.673 140.201 392.671 150.745 392.668 164.449C392.668 165.439 392.668 166.446 392.668 167.469V221.084C392.668 222.108 392.668 223.115 392.668 224.105C392.671 237.809 392.673 248.353 392.08 256.86C391.444 265.972 390.13 272.616 387.475 278.188C382.736 288.135 375.265 296.097 365.992 301.15C360.812 303.972 354.622 305.371 346.107 306.049C338.164 306.68 328.32 306.678 315.526 306.675C314.583 306.674 313.624 306.674 312.648 306.674H161.352C160.376 306.674 159.417 306.674 158.474 306.675C145.68 306.678 135.836 306.68 127.893 306.049C119.378 305.371 113.188 303.972 108.008 301.15C98.7347 296.097 91.2644 288.135 86.5249 278.188C83.8697 272.616 82.556 265.972 81.9202 256.86C81.3267 248.353 81.329 237.809 81.332 224.105C81.3322 223.115 81.3324 222.108 81.3324 221.084V167.469C81.3324 166.446 81.3322 165.439 81.332 164.449C81.329 150.745 81.3267 140.201 81.9202 131.694C82.556 122.582 83.8697 115.938 86.5249 110.366C91.2644 100.419 98.7347 92.4567 108.008 87.404C113.188 84.5817 119.378 83.1827 127.893 82.5053C135.836 81.8734 145.68 81.876 158.474 81.8793C159.417 81.8796 160.376 81.8798 161.352 81.8798Z" stroke="url(#paint4_linear_204_64)" stroke-width="2.66305"/>
<defs>
<filter id="filter0_f_204_64" x="0.10939" y="0.656723" width="473.781" height="387.24" filterUnits="userSpaceOnUse" color-interpolation-filters="sRGB">
<feFlood flood-opacity="0" result="BackgroundImageFix"/>
<feBlend mode="normal" in="SourceGraphic" in2="BackgroundImageFix" result="shape"/>
<feGaussianBlur stdDeviation="39.9458" result="effect1_foregroundBlur_204_64"/>
</filter>
<radialGradient id="paint0_radial_204_64" cx="0" cy="0" r="1" gradientUnits="userSpaceOnUse" gradientTransform="translate(393.999 308.342) rotate(-134.079) scale(436.816 466.7)">
<stop stop-color="#0068E7"/>
<stop offset="1" stop-color="#158DEF"/>
</radialGradient>
<linearGradient id="paint1_linear_204_64" x1="80.001" y1="5" x2="403.926" y2="313.613" gradientUnits="userSpaceOnUse">
<stop offset="0.508799" stop-color="#85BFF8"/>
<stop offset="1" stop-color="#1050A9"/>
</linearGradient>
<linearGradient id="paint2_linear_204_64" x1="80.001" y1="5" x2="445.535" y2="241.239" gradientUnits="userSpaceOnUse">
<stop offset="0.228092" stop-color="#85BFF8"/>
<stop offset="0.99027" stop-color="#0567E4"/>
</linearGradient>
<radialGradient id="paint3_radial_204_64" cx="0" cy="0" r="1" gradientUnits="userSpaceOnUse" gradientTransform="translate(394 308.007) rotate(-144.081) scale(387.729 491.537)">
<stop stop-color="#0164E3"/>
<stop offset="1" stop-color="#3394F0"/>
<stop offset="1" stop-color="#3394F0"/>
</radialGradient>
<linearGradient id="paint4_linear_204_64" x1="80" y1="80.5473" x2="377.335" y2="336.819" gradientUnits="userSpaceOnUse">
<stop offset="0.228092" stop-color="#85BFF8"/>
<stop offset="0.946844" stop-color="#0567E4"/>
</linearGradient>
</defs>
</svg>
