<svg width="272" height="308" viewBox="0 0 272 308" fill="none" xmlns="http://www.w3.org/2000/svg">
<mask id="mask0_204_20" style="mask-type:alpha" maskUnits="userSpaceOnUse" x="0" y="0" width="272" height="308">
<path d="M250 308H22C9.84974 308 0 298.15 0 286V22C0 9.84974 9.84974 0 22 0H170L272 102V286C272 298.15 262.15 308 250 308Z" fill="url(#paint0_linear_204_20)"/>
</mask>
<g mask="url(#mask0_204_20)">
<path d="M250 308H22C9.84974 308 0 298.15 0 286V22C0 9.84974 9.84974 0 22 0H170L272 102V286C272 298.15 262.15 308 250 308Z" fill="url(#paint1_linear_204_20)"/>
<g opacity="0.2" filter="url(#filter0_f_204_20)">
<rect x="48" y="149" width="178" height="84" fill="#DD4B25" style="mix-blend-mode:darken"/>
</g>
<g opacity="0.13">
<path fill-rule="evenodd" clip-rule="evenodd" d="M120.332 154.724C117.572 153.131 114.185 153.147 111.441 154.768C108.696 156.388 107.008 159.367 107.008 162.59V221.772C107.008 224.994 108.696 227.974 111.441 229.594C114.185 231.214 117.572 231.231 120.332 229.638L171.6 200.047C174.387 198.439 176.109 195.435 176.109 192.181C176.109 188.927 174.387 185.923 171.6 184.315L120.332 154.724ZM149.156 192.181L124.84 206.216V178.146L149.156 192.181Z" fill="white"/>
<path fill-rule="evenodd" clip-rule="evenodd" d="M135.999 113L135.288 113.001C134.828 113.002 134.154 113.004 133.292 113.008C131.57 113.016 129.095 113.033 126.08 113.066C120.053 113.131 111.846 113.262 103.146 113.524C94.4608 113.786 85.2122 114.181 77.1228 114.78C69.2827 115.36 61.7748 116.178 57.0167 117.47L56.893 117.504C51.1858 119.143 46.0058 122.281 41.8762 126.602C37.7465 130.923 34.8135 136.274 33.3734 142.113C33.3252 142.309 33.2834 142.506 33.2481 142.704C30.3476 159.028 28.9273 175.588 29.005 192.175C28.9047 208.887 30.3251 225.573 33.2482 242.02C33.3004 242.314 33.3669 242.605 33.4475 242.892C35.0352 248.55 38.0339 253.697 42.154 257.836C46.274 261.974 51.3761 264.964 56.9672 266.517L57.0167 266.53C61.7748 267.822 69.2827 268.64 77.1228 269.22C85.2122 269.819 94.4608 270.214 103.146 270.476C111.846 270.738 120.053 270.869 126.08 270.934C129.095 270.967 131.57 270.984 133.292 270.992C134.154 270.996 134.828 270.998 135.288 270.999L135.996 271L136.712 270.999C137.172 270.998 137.846 270.996 138.708 270.992C140.43 270.984 142.905 270.967 145.92 270.934C151.947 270.869 160.154 270.738 168.854 270.476C177.539 270.214 186.788 269.819 194.877 269.22C202.717 268.64 210.225 267.822 214.983 266.53L215.107 266.496C220.814 264.857 225.994 261.718 230.124 257.398C234.253 253.077 237.186 247.726 238.627 241.887C238.675 241.691 238.717 241.494 238.752 241.295C241.63 225.092 243.051 208.657 242.995 192.193C243.096 175.479 241.675 158.791 238.752 142.342C238.717 142.144 238.675 141.947 238.627 141.751C237.186 135.912 234.253 130.561 230.124 126.24C225.994 121.92 220.814 118.781 215.107 117.142C215.003 117.113 214.899 117.085 214.795 117.059C210.107 115.897 202.664 115.154 194.821 114.623C186.747 114.078 177.511 113.717 168.831 113.478C160.137 113.239 151.936 113.12 145.912 113.06C142.898 113.03 140.425 113.015 138.704 113.008C137.843 113.004 137.17 113.002 136.711 113.001L135.999 113ZM136 122.049L136 131.099L136.675 131.099L138.628 131.106C140.321 131.113 142.761 131.128 145.737 131.157C151.695 131.217 159.788 131.335 168.347 131.57C176.92 131.806 185.895 132.159 193.636 132.682C201.469 133.211 207.374 133.878 210.405 134.602C213.032 135.385 215.416 136.846 217.324 138.842C219.206 140.811 220.561 143.235 221.261 145.883C223.952 161.143 225.259 176.621 225.163 192.124L225.162 192.214C225.217 207.483 223.911 222.725 221.261 237.755C220.561 240.403 219.206 242.827 217.324 244.796C215.394 246.816 212.977 248.286 210.314 249.063C207.382 249.846 201.499 250.583 193.58 251.169C185.854 251.741 176.891 252.127 168.324 252.385C159.771 252.643 151.683 252.772 145.729 252.837C142.754 252.869 140.316 252.885 138.624 252.893C137.778 252.897 137.119 252.899 136.673 252.9H135.327C134.881 252.899 134.222 252.897 133.376 252.893C131.684 252.885 129.246 252.869 126.271 252.837C120.317 252.772 112.229 252.643 103.676 252.385C95.1086 252.127 86.1458 251.741 78.42 251.169C70.4674 250.581 64.5672 249.84 61.6487 249.053C59.0255 248.32 56.632 246.914 54.6979 244.972C52.8519 243.117 51.4839 240.833 50.7115 238.321C48.0386 223.112 46.7418 207.687 46.8374 192.238L46.8375 192.136C46.7626 176.75 48.0686 161.39 50.7394 146.245C51.4392 143.597 52.7937 141.173 54.6762 139.204C56.606 137.184 59.023 135.714 61.6863 134.937C64.6177 134.154 70.5014 133.417 78.42 132.831C86.1458 132.259 95.1086 131.873 103.676 131.615C112.229 131.357 120.317 131.228 126.271 131.163C129.246 131.131 131.684 131.115 133.376 131.107C134.222 131.103 134.881 131.101 135.327 131.1L135.991 131.099L136 122.049Z" fill="white"/>
</g>
<path d="M24.6261 217.395C23.6255 217.395 22.7828 217.053 22.0981 216.368C21.4135 215.683 21.0711 214.841 21.0711 213.84V165.097C21.0711 164.096 21.4135 163.254 22.0981 162.569C22.7828 161.832 23.6255 161.463 24.6261 161.463C25.6268 161.463 26.4695 161.832 27.1541 162.569C27.8915 163.254 28.2601 164.096 28.2601 165.097V186.111H58.2011V165.097C58.2011 164.096 58.5435 163.254 59.2281 162.569C59.9128 161.832 60.7555 161.463 61.7561 161.463C62.7568 161.463 63.5995 161.832 64.2841 162.569C65.0215 163.254 65.3901 164.096 65.3901 165.097V213.84C65.3901 214.841 65.0215 215.683 64.2841 216.368C63.5995 217.053 62.7568 217.395 61.7561 217.395C60.7555 217.395 59.9128 217.053 59.2281 216.368C58.5435 215.683 58.2011 214.841 58.2011 213.84V192.826H28.2601V213.84C28.2601 214.841 27.8915 215.683 27.1541 216.368C26.4695 217.053 25.6268 217.395 24.6261 217.395ZM102.59 217.395C101.589 217.395 100.747 217.053 100.062 216.368C99.3772 215.683 99.0349 214.841 99.0349 213.84V168.573H82.9189C81.9709 168.573 81.1809 168.257 80.5489 167.625C79.9169 166.993 79.6009 166.203 79.6009 165.255C79.6009 164.307 79.9169 163.517 80.5489 162.885C81.1809 162.2 81.9709 161.858 82.9189 161.858H122.261C123.209 161.858 123.999 162.2 124.631 162.885C125.316 163.517 125.658 164.307 125.658 165.255C125.658 166.203 125.316 166.993 124.631 167.625C123.999 168.257 123.209 168.573 122.261 168.573H106.224V213.84C106.224 214.841 105.855 215.683 105.118 216.368C104.433 217.053 103.591 217.395 102.59 217.395ZM143.462 217.395C142.462 217.395 141.619 217.053 140.934 216.368C140.25 215.683 139.907 214.841 139.907 213.84V166.677C139.907 165.255 140.408 164.044 141.408 163.043C142.409 161.99 143.62 161.463 145.042 161.463H147.649C148.703 161.463 149.651 161.779 150.493 162.411C151.389 163.043 152.047 163.833 152.468 164.781L170.401 209.495L188.334 164.781C188.756 163.833 189.388 163.043 190.23 162.411C191.126 161.779 192.1 161.463 193.153 161.463H195.76C197.182 161.463 198.394 161.99 199.394 163.043C200.395 164.044 200.895 165.255 200.895 166.677V213.84C200.895 214.841 200.553 215.683 199.868 216.368C199.184 217.053 198.341 217.395 197.34 217.395C196.34 217.395 195.471 217.053 194.733 216.368C194.049 215.683 193.706 214.841 193.706 213.84V168.968L175.457 214.077C175.036 215.078 174.351 215.894 173.403 216.526C172.508 217.105 171.507 217.395 170.401 217.395C169.295 217.395 168.268 217.105 167.32 216.526C166.425 215.894 165.767 215.078 165.345 214.077L147.096 168.968V213.84C147.096 214.841 146.728 215.683 145.99 216.368C145.306 217.053 144.463 217.395 143.462 217.395ZM226.714 217C225.345 217 224.16 216.526 223.159 215.578C222.211 214.577 221.737 213.392 221.737 212.023V165.097C221.737 164.096 222.08 163.254 222.764 162.569C223.449 161.832 224.292 161.463 225.292 161.463C226.293 161.463 227.136 161.832 227.82 162.569C228.558 163.254 228.926 164.096 228.926 165.097V209.811H254.759C255.76 209.811 256.603 210.18 257.287 210.917C258.025 211.602 258.393 212.444 258.393 213.445C258.393 214.446 258.025 215.288 257.287 215.973C256.603 216.658 255.76 217 254.759 217H226.714Z" fill="white"/>
<path d="M22.0981 216.368L23.5123 214.954L23.5123 214.954L22.0981 216.368ZM22.0981 162.569L23.5123 163.983L23.5385 163.957L23.5637 163.93L22.0981 162.569ZM27.1541 162.569L25.6885 163.93L25.7389 163.984L25.7932 164.035L27.1541 162.569ZM28.2601 186.111H26.2601V188.111H28.2601V186.111ZM58.2011 186.111V188.111H60.2011V186.111H58.2011ZM59.2281 162.569L60.6423 163.983L60.6685 163.957L60.6937 163.93L59.2281 162.569ZM64.2841 162.569L62.8185 163.93L62.8689 163.984L62.9232 164.035L64.2841 162.569ZM64.2841 216.368L62.9232 214.902L62.8961 214.928L62.8699 214.954L64.2841 216.368ZM59.2281 216.368L57.8139 217.782L57.8139 217.782L59.2281 216.368ZM58.2011 192.826H60.2011V190.826H58.2011V192.826ZM28.2601 192.826V190.826H26.2601V192.826H28.2601ZM27.1541 216.368L25.7932 214.902L25.7661 214.928L25.7399 214.954L27.1541 216.368ZM24.6261 215.395C24.1361 215.395 23.8081 215.25 23.5123 214.954L20.6839 217.782C21.7575 218.856 23.1149 219.395 24.6261 219.395V215.395ZM23.5123 214.954C23.2165 214.658 23.0711 214.33 23.0711 213.84H19.0711C19.0711 215.351 19.6104 216.709 20.6839 217.782L23.5123 214.954ZM23.0711 213.84V165.097H19.0711V213.84H23.0711ZM23.0711 165.097C23.0711 164.607 23.2165 164.279 23.5123 163.983L20.6839 161.155C19.6104 162.228 19.0711 163.586 19.0711 165.097H23.0711ZM23.5637 163.93C23.8723 163.598 24.1851 163.463 24.6261 163.463V159.463C23.0658 159.463 21.6933 160.066 20.6325 161.208L23.5637 163.93ZM24.6261 163.463C25.0672 163.463 25.3799 163.598 25.6885 163.93L28.6197 161.208C27.559 160.066 26.1864 159.463 24.6261 159.463V163.463ZM25.7932 164.035C26.1256 164.343 26.2601 164.656 26.2601 165.097H30.2601C30.2601 163.537 29.6573 162.164 28.515 161.103L25.7932 164.035ZM26.2601 165.097V186.111H30.2601V165.097H26.2601ZM28.2601 188.111H58.2011V184.111H28.2601V188.111ZM60.2011 186.111V165.097H56.2011V186.111H60.2011ZM60.2011 165.097C60.2011 164.607 60.3465 164.279 60.6423 163.983L57.8139 161.155C56.7404 162.228 56.2011 163.586 56.2011 165.097H60.2011ZM60.6937 163.93C61.0023 163.598 61.3151 163.463 61.7561 163.463V159.463C60.1958 159.463 58.8233 160.066 57.7625 161.208L60.6937 163.93ZM61.7561 163.463C62.1972 163.463 62.5099 163.598 62.8185 163.93L65.7497 161.208C64.689 160.066 63.3164 159.463 61.7561 159.463V163.463ZM62.9232 164.035C63.2556 164.343 63.3901 164.656 63.3901 165.097H67.3901C67.3901 163.537 66.7873 162.164 65.645 161.103L62.9232 164.035ZM63.3901 165.097V213.84H67.3901V165.097H63.3901ZM63.3901 213.84C63.3901 214.281 63.2556 214.594 62.9232 214.902L65.645 217.834C66.7873 216.773 67.3901 215.4 67.3901 213.84H63.3901ZM62.8699 214.954C62.5741 215.25 62.2462 215.395 61.7561 215.395V219.395C63.2674 219.395 64.6248 218.856 65.6983 217.782L62.8699 214.954ZM61.7561 215.395C61.2661 215.395 60.9381 215.25 60.6423 214.954L57.8139 217.782C58.8875 218.856 60.2449 219.395 61.7561 219.395V215.395ZM60.6423 214.954C60.3465 214.658 60.2011 214.33 60.2011 213.84H56.2011C56.2011 215.351 56.7404 216.709 57.8139 217.782L60.6423 214.954ZM60.2011 213.84V192.826H56.2011V213.84H60.2011ZM58.2011 190.826H28.2601V194.826H58.2011V190.826ZM26.2601 192.826V213.84H30.2601V192.826H26.2601ZM26.2601 213.84C26.2601 214.281 26.1256 214.594 25.7932 214.902L28.515 217.834C29.6573 216.773 30.2601 215.4 30.2601 213.84H26.2601ZM25.7399 214.954C25.4441 215.25 25.1162 215.395 24.6261 215.395V219.395C26.1374 219.395 27.4948 218.856 28.5683 217.782L25.7399 214.954ZM100.062 216.368L98.6477 217.782L100.062 216.368ZM99.0349 168.573H101.035V166.573H99.0349V168.573ZM80.5489 167.625L79.1347 169.039L79.1347 169.039L80.5489 167.625ZM80.5489 162.885L81.9631 164.299L81.9914 164.271L82.0185 164.242L80.5489 162.885ZM124.631 162.885L123.161 164.242L123.216 164.3L123.274 164.355L124.631 162.885ZM124.631 167.625L123.274 166.155L123.245 166.183L123.217 166.211L124.631 167.625ZM106.224 168.573V166.573H104.224V168.573H106.224ZM105.118 216.368L103.757 214.902L103.73 214.928L103.704 214.954L105.118 216.368ZM102.59 215.395C102.1 215.395 101.772 215.25 101.476 214.954L98.6477 217.782C99.7212 218.856 101.079 219.395 102.59 219.395V215.395ZM101.476 214.954C101.18 214.658 101.035 214.33 101.035 213.84H97.0349C97.0349 215.351 97.5741 216.709 98.6477 217.782L101.476 214.954ZM101.035 213.84V168.573H97.0349V213.84H101.035ZM99.0349 166.573H82.9189V170.573H99.0349V166.573ZM82.9189 166.573C82.4656 166.573 82.1955 166.443 81.9631 166.211L79.1347 169.039C80.1662 170.071 81.4761 170.573 82.9189 170.573V166.573ZM81.9631 166.211C81.7307 165.978 81.6009 165.708 81.6009 165.255H77.6009C77.6009 166.698 78.1031 168.008 79.1347 169.039L81.9631 166.211ZM81.6009 165.255C81.6009 164.802 81.7307 164.532 81.9631 164.299L79.1347 161.471C78.1031 162.502 77.6009 163.812 77.6009 165.255H81.6009ZM82.0185 164.242C82.2644 163.975 82.518 163.858 82.9189 163.858V159.858C81.4237 159.858 80.0973 160.426 79.0793 161.528L82.0185 164.242ZM82.9189 163.858H122.261V159.858H82.9189V163.858ZM122.261 163.858C122.662 163.858 122.915 163.975 123.161 164.242L126.1 161.528C125.082 160.426 123.756 159.858 122.261 159.858V163.858ZM123.274 164.355C123.541 164.601 123.658 164.854 123.658 165.255H127.658C127.658 163.76 127.09 162.433 125.987 161.415L123.274 164.355ZM123.658 165.255C123.658 165.656 123.541 165.909 123.274 166.155L125.987 169.095C127.09 168.077 127.658 166.75 127.658 165.255H123.658ZM123.217 166.211C122.984 166.443 122.714 166.573 122.261 166.573V170.573C123.704 170.573 125.013 170.071 126.045 169.039L123.217 166.211ZM122.261 166.573H106.224V170.573H122.261V166.573ZM104.224 168.573V213.84H108.224V168.573H104.224ZM104.224 213.84C104.224 214.281 104.089 214.594 103.757 214.902L106.479 217.834C107.621 216.773 108.224 215.4 108.224 213.84H104.224ZM103.704 214.954C103.408 215.25 103.08 215.395 102.59 215.395V219.395C104.101 219.395 105.459 218.856 106.532 217.782L103.704 214.954ZM140.934 216.368L142.349 214.954L142.349 214.954L140.934 216.368ZM141.408 163.043L142.823 164.457L142.841 164.439L142.858 164.42L141.408 163.043ZM150.493 162.411L149.293 164.011L149.317 164.028L149.34 164.045L150.493 162.411ZM152.468 164.781L154.325 164.037L154.311 164.002L154.296 163.969L152.468 164.781ZM170.401 209.495L168.545 210.239L170.401 214.868L172.258 210.239L170.401 209.495ZM188.334 164.781L186.507 163.969L186.492 164.002L186.478 164.037L188.334 164.781ZM190.23 162.411L189.077 160.777L189.054 160.794L189.03 160.811L190.23 162.411ZM199.394 163.043L197.944 164.42L197.962 164.439L197.98 164.457L199.394 163.043ZM199.868 216.368L201.283 217.782L201.283 217.782L199.868 216.368ZM194.733 216.368L193.319 217.782L193.345 217.808L193.373 217.834L194.733 216.368ZM193.706 168.968H195.706L191.852 168.218L193.706 168.968ZM175.457 214.077L177.301 214.853L177.306 214.84L177.312 214.827L175.457 214.077ZM173.403 216.526L174.49 218.205L174.501 218.198L174.513 218.19L173.403 216.526ZM167.32 216.526L166.167 218.16L166.221 218.198L166.278 218.233L167.32 216.526ZM165.345 214.077L163.491 214.827L163.497 214.84L163.502 214.853L165.345 214.077ZM147.096 168.968L148.951 168.218L145.096 168.968H147.096ZM145.99 216.368L144.63 214.902L144.602 214.928L144.576 214.954L145.99 216.368ZM143.462 215.395C142.972 215.395 142.645 215.25 142.349 214.954L139.52 217.782C140.594 218.856 141.951 219.395 143.462 219.395V215.395ZM142.349 214.954C142.053 214.658 141.907 214.33 141.907 213.84H137.907C137.907 215.351 138.447 216.709 139.52 217.782L142.349 214.954ZM141.907 213.84V166.677H137.907V213.84H141.907ZM141.907 166.677C141.907 165.783 142.199 165.081 142.823 164.457L139.994 161.629C138.617 163.007 137.907 164.727 137.907 166.677H141.907ZM142.858 164.42C143.491 163.755 144.182 163.463 145.042 163.463V159.463C143.059 159.463 141.327 160.224 139.958 161.665L142.858 164.42ZM145.042 163.463H147.649V159.463H145.042V163.463ZM147.649 163.463C148.27 163.463 148.797 163.639 149.293 164.011L151.693 160.811C150.505 159.919 149.136 159.463 147.649 159.463V163.463ZM149.34 164.045C149.958 164.481 150.374 164.994 150.641 165.593L154.296 163.969C153.72 162.672 152.82 161.605 151.647 160.777L149.34 164.045ZM150.612 165.525L168.545 210.239L172.258 208.751L154.325 164.037L150.612 165.525ZM172.258 210.239L190.191 165.525L186.478 164.037L168.545 208.751L172.258 210.239ZM190.162 165.593C190.443 164.962 190.856 164.442 191.43 164.011L189.03 160.811C187.919 161.644 187.069 162.704 186.507 163.969L190.162 165.593ZM191.384 164.045C191.956 163.641 192.531 163.463 193.153 163.463V159.463C191.67 159.463 190.295 159.917 189.077 160.777L191.384 164.045ZM193.153 163.463H195.76V159.463H193.153V163.463ZM195.76 163.463C196.621 163.463 197.312 163.755 197.944 164.42L200.844 161.665C199.476 160.224 197.744 159.463 195.76 159.463V163.463ZM197.98 164.457C198.604 165.081 198.895 165.783 198.895 166.677H202.895C202.895 164.727 202.186 163.007 200.809 161.629L197.98 164.457ZM198.895 166.677V213.84H202.895V166.677H198.895ZM198.895 213.84C198.895 214.33 198.75 214.658 198.454 214.954L201.283 217.782C202.356 216.709 202.895 215.351 202.895 213.84H198.895ZM198.454 214.954C198.158 215.25 197.831 215.395 197.34 215.395V219.395C198.852 219.395 200.209 218.856 201.283 217.782L198.454 214.954ZM197.34 215.395C196.848 215.395 196.464 215.246 196.094 214.902L193.373 217.834C194.478 218.86 195.832 219.395 197.34 219.395V215.395ZM196.148 214.954C195.852 214.658 195.706 214.33 195.706 213.84H191.706C191.706 215.351 192.246 216.709 193.319 217.782L196.148 214.954ZM195.706 213.84V168.968H191.706V213.84H195.706ZM191.852 168.218L173.603 213.327L177.312 214.827L195.561 169.718L191.852 168.218ZM173.614 213.301C173.353 213.922 172.933 214.436 172.294 214.862L174.513 218.19C175.77 217.352 176.719 216.234 177.301 214.853L173.614 213.301ZM172.317 214.847C171.758 215.209 171.137 215.395 170.401 215.395V219.395C171.878 219.395 173.259 219.002 174.49 218.205L172.317 214.847ZM170.401 215.395C169.665 215.395 168.999 215.208 168.363 214.819L166.278 218.233C167.538 219.003 168.926 219.395 170.401 219.395V215.395ZM168.474 214.892C167.881 214.474 167.463 213.953 167.189 213.301L163.502 214.853C164.07 216.202 164.969 217.314 166.167 218.16L168.474 214.892ZM167.2 213.327L148.951 168.218L145.242 169.718L163.491 214.827L167.2 213.327ZM145.096 168.968V213.84H149.096V168.968H145.096ZM145.096 213.84C145.096 214.281 144.962 214.594 144.63 214.902L147.351 217.834C148.494 216.773 149.096 215.4 149.096 213.84H145.096ZM144.576 214.954C144.28 215.25 143.953 215.395 143.462 215.395V219.395C144.974 219.395 146.331 218.856 147.405 217.782L144.576 214.954ZM223.159 215.578L221.707 216.953L221.745 216.993L221.784 217.03L223.159 215.578ZM222.764 162.569L224.179 163.983L224.205 163.957L224.23 163.93L222.764 162.569ZM227.82 162.569L226.355 163.93L226.405 163.984L226.459 164.035L227.82 162.569ZM228.926 209.811H226.926V211.811H228.926V209.811ZM257.287 210.917L255.822 212.278L255.872 212.332L255.926 212.383L257.287 210.917ZM257.287 215.973L255.926 214.507L255.899 214.533L255.873 214.559L257.287 215.973ZM226.714 215C225.86 215 225.167 214.725 224.535 214.126L221.784 217.03C223.153 218.327 224.829 219 226.714 219V215ZM224.611 214.203C224.013 213.571 223.737 212.877 223.737 212.023H219.737C219.737 213.908 220.41 215.584 221.707 216.953L224.611 214.203ZM223.737 212.023V165.097H219.737V212.023H223.737ZM223.737 165.097C223.737 164.607 223.883 164.279 224.179 163.983L221.35 161.155C220.277 162.228 219.737 163.586 219.737 165.097H223.737ZM224.23 163.93C224.539 163.598 224.851 163.463 225.292 163.463V159.463C223.732 159.463 222.359 160.066 221.299 161.208L224.23 163.93ZM225.292 163.463C225.733 163.463 226.046 163.598 226.355 163.93L229.286 161.208C228.225 160.066 226.853 159.463 225.292 159.463V163.463ZM226.459 164.035C226.792 164.343 226.926 164.656 226.926 165.097H230.926C230.926 163.537 230.324 162.164 229.181 161.103L226.459 164.035ZM226.926 165.097V209.811H230.926V165.097H226.926ZM228.926 211.811H254.759V207.811H228.926V211.811ZM254.759 211.811C255.2 211.811 255.513 211.946 255.822 212.278L258.753 209.556C257.692 208.414 256.32 207.811 254.759 207.811V211.811ZM255.926 212.383C256.259 212.691 256.393 213.004 256.393 213.445H260.393C260.393 211.885 259.791 210.512 258.648 209.451L255.926 212.383ZM256.393 213.445C256.393 213.886 256.259 214.199 255.926 214.507L258.648 217.439C259.791 216.378 260.393 215.005 260.393 213.445H256.393ZM255.873 214.559C255.577 214.855 255.249 215 254.759 215V219C256.271 219 257.628 218.461 258.702 217.387L255.873 214.559ZM254.759 215H226.714V219H254.759V215Z" fill="white"/>
<ellipse opacity="0.05" cx="-14.5" cy="-12.5" rx="223.5" ry="214.5" fill="url(#paint2_linear_204_20)"/>
<ellipse opacity="0.05" cx="-14.5" cy="-12.5" rx="140.5" ry="134.5" fill="url(#paint3_linear_204_20)"/>
<g filter="url(#filter1_d_204_20)">
<path d="M272 102H192C179.85 102 170 92.1503 170 80V0L272 102Z" fill="url(#paint4_linear_204_20)"/>
</g>
</g>
<defs>
<filter id="filter0_f_204_20" x="9" y="110" width="256" height="162" filterUnits="userSpaceOnUse" color-interpolation-filters="sRGB">
<feFlood flood-opacity="0" result="BackgroundImageFix"/>
<feBlend mode="normal" in="SourceGraphic" in2="BackgroundImageFix" result="shape"/>
<feGaussianBlur stdDeviation="19.5" result="effect1_foregroundBlur_204_20"/>
</filter>
<filter id="filter1_d_204_20" x="147" y="-24" width="152" height="152" filterUnits="userSpaceOnUse" color-interpolation-filters="sRGB">
<feFlood flood-opacity="0" result="BackgroundImageFix"/>
<feColorMatrix in="SourceAlpha" type="matrix" values="0 0 0 0 0 0 0 0 0 0 0 0 0 0 0 0 0 0 127 0" result="hardAlpha"/>
<feOffset dx="2" dy="1"/>
<feGaussianBlur stdDeviation="12.5"/>
<feColorMatrix type="matrix" values="0 0 0 0 0 0 0 0 0 0 0 0 0 0 0 0 0 0 0.33 0"/>
<feBlend mode="normal" in2="BackgroundImageFix" result="effect1_dropShadow_204_20"/>
<feBlend mode="normal" in="SourceGraphic" in2="effect1_dropShadow_204_20" result="shape"/>
</filter>
<linearGradient id="paint0_linear_204_20" x1="136" y1="0" x2="136" y2="308" gradientUnits="userSpaceOnUse">
<stop stop-color="#FF7979"/>
<stop offset="1" stop-color="#E85555"/>
</linearGradient>
<linearGradient id="paint1_linear_204_20" x1="136" y1="0" x2="136" y2="308" gradientUnits="userSpaceOnUse">
<stop stop-color="#FF633A" stop-opacity="0.25"/>
<stop offset="0.942892" stop-color="#DD4B25"/>
</linearGradient>
<linearGradient id="paint2_linear_204_20" x1="1.72772" y1="-5.12887" x2="69.5069" y2="174.758" gradientUnits="userSpaceOnUse">
<stop stop-color="white" stop-opacity="0"/>
<stop offset="1" stop-color="white"/>
</linearGradient>
<linearGradient id="paint3_linear_204_20" x1="-4.29868" y1="-7.87801" x2="38.1204" y2="104.989" gradientUnits="userSpaceOnUse">
<stop stop-color="white" stop-opacity="0"/>
<stop offset="1" stop-color="white"/>
</linearGradient>
<linearGradient id="paint4_linear_204_20" x1="221" y1="0" x2="221" y2="102" gradientUnits="userSpaceOnUse">
<stop stop-color="#F8896C"/>
<stop offset="1" stop-color="#DD4B25"/>
</linearGradient>
</defs>
</svg>
