<svg width="272" height="308" viewBox="0 0 272 308" fill="none" xmlns="http://www.w3.org/2000/svg">
<mask id="mask0_204_42" style="mask-type:alpha" maskUnits="userSpaceOnUse" x="0" y="0" width="272" height="308">
<path d="M250 308H22C9.84974 308 0 298.15 0 286V22C0 9.84974 9.84974 0 22 0H170L272 102V286C272 298.15 262.15 308 250 308Z" fill="url(#paint0_linear_204_42)"/>
</mask>
<g mask="url(#mask0_204_42)">
<path d="M250 308H22C9.84974 308 0 298.15 0 286V22C0 9.84974 9.84974 0 22 0H170L272 102V286C272 298.15 262.15 308 250 308Z" fill="url(#paint1_linear_204_42)"/>
<g opacity="0.2" filter="url(#filter0_f_204_42)">
<rect x="48" y="149" width="178" height="84" fill="#AB9B0D" style="mix-blend-mode:darken"/>
</g>
<g opacity="0.13">
<path fill-rule="evenodd" clip-rule="evenodd" d="M120.332 154.724C117.572 153.131 114.185 153.147 111.441 154.768C108.696 156.388 107.008 159.367 107.008 162.59V221.772C107.008 224.994 108.696 227.974 111.441 229.594C114.185 231.214 117.572 231.231 120.332 229.638L171.6 200.047C174.387 198.439 176.109 195.435 176.109 192.181C176.109 188.927 174.387 185.923 171.6 184.315L120.332 154.724ZM149.156 192.181L124.84 206.216V178.146L149.156 192.181Z" fill="white"/>
<path fill-rule="evenodd" clip-rule="evenodd" d="M135.999 113L135.288 113.001C134.828 113.002 134.154 113.004 133.292 113.008C131.57 113.016 129.095 113.033 126.08 113.066C120.053 113.131 111.846 113.262 103.146 113.524C94.4608 113.786 85.2122 114.181 77.1228 114.78C69.2827 115.36 61.7748 116.178 57.0167 117.47L56.893 117.504C51.1858 119.143 46.0058 122.281 41.8762 126.602C37.7465 130.923 34.8135 136.274 33.3734 142.113C33.3252 142.309 33.2834 142.506 33.2481 142.704C30.3476 159.028 28.9273 175.588 29.005 192.175C28.9047 208.887 30.3251 225.573 33.2482 242.02C33.3004 242.314 33.3669 242.605 33.4475 242.892C35.0352 248.55 38.0339 253.697 42.154 257.836C46.274 261.974 51.3761 264.964 56.9672 266.517L57.0167 266.53C61.7748 267.822 69.2827 268.64 77.1228 269.22C85.2122 269.819 94.4608 270.214 103.146 270.476C111.846 270.738 120.053 270.869 126.08 270.934C129.095 270.967 131.57 270.984 133.292 270.992C134.154 270.996 134.828 270.998 135.288 270.999L135.996 271L136.712 270.999C137.172 270.998 137.846 270.996 138.708 270.992C140.43 270.984 142.905 270.967 145.92 270.934C151.947 270.869 160.154 270.738 168.854 270.476C177.539 270.214 186.788 269.819 194.877 269.22C202.717 268.64 210.225 267.822 214.983 266.53L215.107 266.496C220.814 264.857 225.994 261.718 230.124 257.398C234.253 253.077 237.186 247.726 238.627 241.887C238.675 241.691 238.717 241.494 238.752 241.295C241.63 225.092 243.051 208.657 242.995 192.193C243.096 175.479 241.675 158.791 238.752 142.342C238.717 142.144 238.675 141.947 238.627 141.751C237.186 135.912 234.253 130.561 230.124 126.24C225.994 121.92 220.814 118.781 215.107 117.142C215.003 117.113 214.899 117.085 214.795 117.059C210.107 115.897 202.664 115.154 194.821 114.623C186.747 114.078 177.511 113.717 168.831 113.478C160.137 113.239 151.936 113.12 145.912 113.06C142.898 113.03 140.425 113.015 138.704 113.008C137.843 113.004 137.17 113.002 136.711 113.001L135.999 113ZM136 122.049L136 131.099L136.675 131.099L138.628 131.106C140.321 131.113 142.761 131.128 145.737 131.157C151.695 131.217 159.788 131.335 168.347 131.57C176.92 131.806 185.895 132.159 193.636 132.682C201.469 133.211 207.374 133.878 210.405 134.602C213.032 135.385 215.416 136.846 217.324 138.842C219.206 140.811 220.561 143.235 221.261 145.883C223.952 161.143 225.259 176.621 225.163 192.124L225.162 192.214C225.217 207.483 223.911 222.725 221.261 237.755C220.561 240.403 219.206 242.827 217.324 244.796C215.394 246.816 212.977 248.286 210.314 249.063C207.382 249.846 201.499 250.583 193.58 251.169C185.854 251.741 176.891 252.127 168.324 252.385C159.771 252.643 151.683 252.772 145.729 252.837C142.754 252.869 140.316 252.885 138.624 252.893C137.778 252.897 137.119 252.899 136.673 252.9H135.327C134.881 252.899 134.222 252.897 133.376 252.893C131.684 252.885 129.246 252.869 126.271 252.837C120.317 252.772 112.229 252.643 103.676 252.385C95.1086 252.127 86.1458 251.741 78.42 251.169C70.4674 250.581 64.5672 249.84 61.6487 249.053C59.0255 248.32 56.632 246.914 54.6979 244.972C52.8519 243.117 51.4839 240.833 50.7115 238.321C48.0386 223.112 46.7418 207.687 46.8374 192.238L46.8375 192.136C46.7626 176.75 48.0686 161.39 50.7394 146.245C51.4392 143.597 52.7937 141.173 54.6762 139.204C56.606 137.184 59.023 135.714 61.6863 134.937C64.6177 134.154 70.5014 133.417 78.42 132.831C86.1458 132.259 95.1086 131.873 103.676 131.615C112.229 131.357 120.317 131.228 126.271 131.163C129.246 131.131 131.684 131.115 133.376 131.107C134.222 131.103 134.881 131.101 135.327 131.1L135.991 131.099L136 122.049Z" fill="white"/>
</g>
<path d="M103.767 217.79C99.9221 217.79 96.4198 216.895 93.2598 215.104C92.1011 214.419 91.5218 213.445 91.5218 212.181C91.5218 211.338 91.7851 210.601 92.3118 209.969C92.8911 209.284 93.6284 208.942 94.5238 208.942C95.0504 208.942 95.5244 209.047 95.9458 209.258C98.3684 210.417 100.817 210.996 103.293 210.996C106.137 210.996 108.428 210.18 110.166 208.547C111.956 206.914 112.852 203.833 112.852 199.304V165.097C112.852 164.096 113.194 163.254 113.879 162.569C114.563 161.832 115.406 161.463 116.407 161.463C117.407 161.463 118.25 161.832 118.935 162.569C119.672 163.254 120.041 164.096 120.041 165.097V198.83C120.041 205.729 118.487 210.627 115.38 213.524C112.325 216.368 108.454 217.79 103.767 217.79ZM157.868 217.79C151.179 217.79 144.912 216.526 139.066 213.998C138.434 213.735 137.907 213.313 137.486 212.734C137.064 212.102 136.854 211.444 136.854 210.759C136.854 209.864 137.143 209.1 137.723 208.468C138.355 207.783 139.145 207.441 140.093 207.441C140.619 207.441 141.12 207.546 141.594 207.757C146.439 209.916 151.627 210.996 157.157 210.996C166.373 210.996 170.982 207.968 170.982 201.911C170.982 200.331 170.376 199.014 169.165 197.961C168.006 196.908 166.558 196.091 164.82 195.512C163.082 194.88 160.606 194.143 157.394 193.3C153.128 192.194 149.678 191.141 147.045 190.14C144.411 189.087 142.147 187.533 140.251 185.479C138.355 183.425 137.407 180.686 137.407 177.263C137.407 174.261 138.197 171.549 139.777 169.126C141.357 166.651 143.674 164.702 146.729 163.28C149.836 161.805 153.549 161.068 157.868 161.068C163.661 161.068 168.901 161.937 173.589 163.675C175.063 164.202 175.801 165.255 175.801 166.835C175.801 167.678 175.511 168.441 174.932 169.126C174.352 169.811 173.589 170.153 172.641 170.153C172.325 170.153 171.903 170.048 171.377 169.837C167.269 168.415 163.029 167.704 158.658 167.704C154.497 167.704 151.1 168.494 148.467 170.074C145.886 171.654 144.596 173.866 144.596 176.71C144.596 178.606 145.201 180.16 146.413 181.371C147.677 182.53 149.23 183.451 151.074 184.136C152.97 184.768 155.524 185.453 158.737 186.19C162.897 187.191 166.242 188.191 168.77 189.192C171.35 190.193 173.536 191.746 175.327 193.853C177.17 195.96 178.092 198.804 178.092 202.385C178.092 205.334 177.249 207.994 175.564 210.364C173.878 212.681 171.508 214.498 168.454 215.815C165.399 217.132 161.87 217.79 157.868 217.79Z" fill="white"/>
<path d="M93.2598 215.104L92.2423 216.826L92.2579 216.835L92.2737 216.844L93.2598 215.104ZM92.3118 209.969L90.785 208.677L90.7801 208.683L90.7753 208.689L92.3118 209.969ZM95.9458 209.258L95.0513 211.047L95.067 211.055L95.0829 211.062L95.9458 209.258ZM110.166 208.547L108.818 207.069L108.807 207.079L108.796 207.089L110.166 208.547ZM113.879 162.569L115.293 163.983L115.319 163.957L115.344 163.93L113.879 162.569ZM118.935 162.569L117.469 163.93L117.52 163.984L117.574 164.035L118.935 162.569ZM115.38 213.524L116.743 214.988L116.744 214.987L115.38 213.524ZM103.767 215.79C100.247 215.79 97.0874 214.974 94.2458 213.364L92.2737 216.844C95.7522 218.815 99.5974 219.79 103.767 219.79V215.79ZM94.2772 213.382C93.6795 213.029 93.5218 212.684 93.5218 212.181H89.5218C89.5218 214.206 90.5227 215.81 92.2423 216.826L94.2772 213.382ZM93.5218 212.181C93.5218 211.794 93.6289 211.513 93.8482 211.249L90.7753 208.689C89.9413 209.689 89.5218 210.883 89.5218 212.181H93.5218ZM93.8385 211.261C94.0386 211.024 94.2179 210.942 94.5238 210.942V206.942C93.039 206.942 91.7436 207.544 90.785 208.677L93.8385 211.261ZM94.5238 210.942C94.777 210.942 94.9391 210.991 95.0513 211.047L96.8402 207.469C96.1098 207.104 95.3239 206.942 94.5238 206.942V210.942ZM95.0829 211.062C97.7517 212.339 100.494 212.996 103.293 212.996V208.996C101.141 208.996 98.9852 208.495 96.8087 207.454L95.0829 211.062ZM103.293 212.996C106.541 212.996 109.357 212.051 111.535 210.005L108.796 207.089C107.499 208.308 105.732 208.996 103.293 208.996V212.996ZM111.513 210.025C113.962 207.792 114.852 203.951 114.852 199.304H110.852C110.852 203.716 109.951 206.036 108.818 207.069L111.513 210.025ZM114.852 199.304V165.097H110.852V199.304H114.852ZM114.852 165.097C114.852 164.607 114.997 164.279 115.293 163.983L112.465 161.155C111.391 162.228 110.852 163.586 110.852 165.097H114.852ZM115.344 163.93C115.653 163.598 115.966 163.463 116.407 163.463V159.463C114.846 159.463 113.474 160.066 112.413 161.208L115.344 163.93ZM116.407 163.463C116.848 163.463 117.161 163.598 117.469 163.93L120.4 161.208C119.34 160.066 117.967 159.463 116.407 159.463V163.463ZM117.574 164.035C117.906 164.343 118.041 164.656 118.041 165.097H122.041C122.041 163.537 121.438 162.164 120.296 161.103L117.574 164.035ZM118.041 165.097V198.83H122.041V165.097H118.041ZM118.041 198.83C118.041 205.509 116.525 209.723 114.016 212.061L116.744 214.987C120.45 211.532 122.041 205.949 122.041 198.83H118.041ZM114.017 212.06C111.379 214.516 108.016 215.79 103.767 215.79V219.79C108.893 219.79 113.271 218.22 116.743 214.988L114.017 212.06ZM139.066 213.998L139.859 212.162L139.847 212.157L139.835 212.152L139.066 213.998ZM137.486 212.734L135.821 213.843L135.844 213.877L135.868 213.91L137.486 212.734ZM137.723 208.468L136.253 207.111L136.248 207.117L137.723 208.468ZM141.594 207.757L142.408 205.93L142.406 205.929L141.594 207.757ZM169.165 197.961L167.819 199.441L167.836 199.456L167.852 199.47L169.165 197.961ZM164.82 195.512L164.136 197.392L164.161 197.401L164.187 197.409L164.82 195.512ZM157.394 193.3L157.901 191.365L157.895 191.364L157.394 193.3ZM147.045 190.14L146.302 191.997L146.318 192.003L146.334 192.01L147.045 190.14ZM140.251 185.479L138.781 186.836L138.781 186.836L140.251 185.479ZM139.777 169.126L141.452 170.219L141.457 170.21L141.462 170.202L139.777 169.126ZM146.729 163.28L147.573 165.093L147.579 165.09L147.586 165.087L146.729 163.28ZM173.589 163.675L172.893 165.55L172.905 165.554L172.916 165.558L173.589 163.675ZM174.932 169.126L176.458 170.418L176.458 170.418L174.932 169.126ZM171.377 169.837L172.119 167.98L172.075 167.962L172.031 167.947L171.377 169.837ZM148.467 170.074L147.438 168.359L147.43 168.364L147.422 168.368L148.467 170.074ZM146.413 181.371L144.998 182.785L145.029 182.816L145.061 182.845L146.413 181.371ZM151.074 184.136L150.377 186.011L150.409 186.023L150.441 186.033L151.074 184.136ZM158.737 186.19L159.204 184.245L159.194 184.243L159.184 184.241L158.737 186.19ZM168.77 189.192L168.033 191.052L168.047 191.057L168.77 189.192ZM175.327 193.853L173.803 195.148L173.812 195.159L173.821 195.17L175.327 193.853ZM175.564 210.364L177.181 211.54L177.187 211.532L177.193 211.523L175.564 210.364ZM168.454 215.815L169.245 217.652L169.245 217.652L168.454 215.815ZM157.868 215.79C151.438 215.79 145.442 214.577 139.859 212.162L138.272 215.834C144.381 218.475 150.92 219.79 157.868 219.79V215.79ZM139.835 212.152C139.558 212.036 139.319 211.854 139.103 211.558L135.868 213.91C136.495 214.772 137.309 215.433 138.296 215.844L139.835 212.152ZM139.15 211.625C138.922 211.284 138.854 211.006 138.854 210.759H134.854C134.854 211.881 135.206 212.92 135.821 213.843L139.15 211.625ZM138.854 210.759C138.854 210.34 138.972 210.065 139.197 209.819L136.248 207.117C135.315 208.135 134.854 209.388 134.854 210.759H138.854ZM139.192 209.825C139.438 209.558 139.692 209.441 140.093 209.441V205.441C138.597 205.441 137.271 206.009 136.253 207.111L139.192 209.825ZM140.093 209.441C140.344 209.441 140.567 209.489 140.781 209.585L142.406 205.929C141.672 205.603 140.895 205.441 140.093 205.441V209.441ZM140.779 209.584C145.892 211.862 151.358 212.996 157.157 212.996V208.996C151.895 208.996 146.986 207.97 142.408 205.93L140.779 209.584ZM157.157 212.996C161.92 212.996 165.841 212.225 168.624 210.396C171.553 208.471 172.982 205.534 172.982 201.911H168.982C168.982 204.344 168.106 205.95 166.427 207.053C164.602 208.253 161.609 208.996 157.157 208.996V212.996ZM172.982 201.911C172.982 199.742 172.117 197.878 170.477 196.452L167.852 199.47C168.635 200.151 168.982 200.92 168.982 201.911H172.982ZM170.51 196.481C169.113 195.211 167.41 194.267 165.452 193.615L164.187 197.409C165.705 197.915 166.899 198.604 167.819 199.441L170.51 196.481ZM165.503 193.632C163.679 192.969 161.134 192.214 157.901 191.365L156.886 195.235C160.078 196.072 162.484 196.791 164.136 197.392L165.503 193.632ZM157.895 191.364C153.666 190.267 150.293 189.235 147.755 188.27L146.334 192.01C149.062 193.046 152.59 194.121 156.892 195.236L157.895 191.364ZM147.787 188.283C145.426 187.339 143.411 185.954 141.72 184.122L138.781 186.836C140.882 189.112 143.396 190.835 146.302 191.997L147.787 188.283ZM141.72 184.122C140.238 182.517 139.407 180.302 139.407 177.263H135.407C135.407 181.07 136.471 184.333 138.781 186.836L141.72 184.122ZM139.407 177.263C139.407 174.633 140.092 172.303 141.452 170.219L138.101 168.033C136.301 170.794 135.407 173.889 135.407 177.263H139.407ZM141.462 170.202C142.809 168.093 144.811 166.379 147.573 165.093L145.885 161.467C142.537 163.025 139.904 165.209 138.091 168.05L141.462 170.202ZM147.586 165.087C150.366 163.768 153.772 163.068 157.868 163.068V159.068C153.326 159.068 149.306 159.843 145.871 161.473L147.586 165.087ZM157.868 163.068C163.461 163.068 168.461 163.907 172.893 165.55L174.284 161.8C169.342 159.967 163.861 159.068 157.868 159.068V163.068ZM172.916 165.558C173.349 165.713 173.526 165.888 173.609 166.007C173.693 166.127 173.801 166.36 173.801 166.835H177.801C177.801 165.73 177.539 164.646 176.886 163.713C176.232 162.778 175.303 162.163 174.261 161.792L172.916 165.558ZM173.801 166.835C173.801 167.173 173.7 167.485 173.405 167.834L176.458 170.418C177.322 169.397 177.801 168.183 177.801 166.835H173.801ZM173.405 167.834C173.23 168.041 173.039 168.153 172.641 168.153V172.153C174.139 172.153 175.475 171.58 176.458 170.418L173.405 167.834ZM172.641 168.153C172.694 168.153 172.679 168.16 172.573 168.134C172.471 168.108 172.323 168.061 172.119 167.98L170.634 171.694C171.239 171.936 171.943 172.153 172.641 172.153V168.153ZM172.031 167.947C167.711 166.452 163.25 165.704 158.658 165.704V169.704C162.807 169.704 166.826 170.378 170.722 171.727L172.031 167.947ZM158.658 165.704C154.258 165.704 150.473 166.538 147.438 168.359L149.496 171.789C151.727 170.45 154.735 169.704 158.658 169.704V165.704ZM147.422 168.368C144.294 170.284 142.596 173.118 142.596 176.71H146.596C146.596 174.614 147.478 173.024 149.511 171.78L147.422 168.368ZM142.596 176.71C142.596 179.074 143.37 181.157 144.998 182.785L147.827 179.957C147.032 179.162 146.596 178.138 146.596 176.71H142.596ZM145.061 182.845C146.541 184.202 148.327 185.249 150.377 186.011L151.77 182.261C150.134 181.653 148.812 180.857 147.764 179.897L145.061 182.845ZM150.441 186.033C152.424 186.694 155.048 187.396 158.289 188.139L159.184 184.241C155.999 183.51 153.515 182.842 151.706 182.239L150.441 186.033ZM158.269 188.135C162.384 189.124 165.628 190.099 168.033 191.052L169.506 187.332C166.856 186.283 163.411 185.257 159.204 184.245L158.269 188.135ZM168.047 191.057C170.317 191.937 172.228 193.295 173.803 195.148L176.85 192.558C174.844 190.197 172.383 188.448 169.493 187.327L168.047 191.057ZM173.821 195.17C175.265 196.82 176.092 199.149 176.092 202.385H180.092C180.092 198.458 179.075 195.1 176.832 192.536L173.821 195.17ZM176.092 202.385C176.092 204.925 175.375 207.179 173.934 209.205L177.193 211.523C179.123 208.809 180.092 205.743 180.092 202.385H176.092ZM173.946 209.188C172.504 211.171 170.441 212.781 167.662 213.978L169.245 217.652C172.576 216.216 175.253 214.192 177.181 211.54L173.946 209.188ZM167.662 213.978C164.903 215.168 161.652 215.79 157.868 215.79V219.79C162.088 219.79 165.895 219.096 169.245 217.652L167.662 213.978Z" fill="white"/>
<ellipse opacity="0.05" cx="-14.5" cy="-12.5" rx="223.5" ry="214.5" fill="url(#paint2_linear_204_42)"/>
<ellipse opacity="0.05" cx="-14.5" cy="-12.5" rx="140.5" ry="134.5" fill="url(#paint3_linear_204_42)"/>
<g filter="url(#filter1_d_204_42)">
<path d="M272 102H192C179.85 102 170 92.1503 170 80V0L272 102Z" fill="url(#paint4_linear_204_42)"/>
</g>
</g>
<defs>
<filter id="filter0_f_204_42" x="9" y="110" width="256" height="162" filterUnits="userSpaceOnUse" color-interpolation-filters="sRGB">
<feFlood flood-opacity="0" result="BackgroundImageFix"/>
<feBlend mode="normal" in="SourceGraphic" in2="BackgroundImageFix" result="shape"/>
<feGaussianBlur stdDeviation="19.5" result="effect1_foregroundBlur_204_42"/>
</filter>
<filter id="filter1_d_204_42" x="147" y="-24" width="152" height="152" filterUnits="userSpaceOnUse" color-interpolation-filters="sRGB">
<feFlood flood-opacity="0" result="BackgroundImageFix"/>
<feColorMatrix in="SourceAlpha" type="matrix" values="0 0 0 0 0 0 0 0 0 0 0 0 0 0 0 0 0 0 127 0" result="hardAlpha"/>
<feOffset dx="2" dy="1"/>
<feGaussianBlur stdDeviation="12.5"/>
<feColorMatrix type="matrix" values="0 0 0 0 0 0 0 0 0 0 0 0 0 0 0 0 0 0 0.33 0"/>
<feBlend mode="normal" in2="BackgroundImageFix" result="effect1_dropShadow_204_42"/>
<feBlend mode="normal" in="SourceGraphic" in2="effect1_dropShadow_204_42" result="shape"/>
</filter>
<linearGradient id="paint0_linear_204_42" x1="136" y1="0" x2="136" y2="308" gradientUnits="userSpaceOnUse">
<stop stop-color="#FF7979"/>
<stop offset="1" stop-color="#E85555"/>
</linearGradient>
<linearGradient id="paint1_linear_204_42" x1="136" y1="0" x2="136" y2="308" gradientUnits="userSpaceOnUse">
<stop stop-color="#F9EE92"/>
<stop offset="0.942892" stop-color="#DBC505"/>
</linearGradient>
<linearGradient id="paint2_linear_204_42" x1="1.72772" y1="-5.12887" x2="69.5069" y2="174.758" gradientUnits="userSpaceOnUse">
<stop stop-color="white" stop-opacity="0"/>
<stop offset="1" stop-color="white"/>
</linearGradient>
<linearGradient id="paint3_linear_204_42" x1="-4.29868" y1="-7.87801" x2="38.1204" y2="104.989" gradientUnits="userSpaceOnUse">
<stop stop-color="white" stop-opacity="0"/>
<stop offset="1" stop-color="white"/>
</linearGradient>
<linearGradient id="paint4_linear_204_42" x1="221" y1="0" x2="221" y2="102" gradientUnits="userSpaceOnUse">
<stop stop-color="#FFF7AE"/>
<stop offset="1" stop-color="#F7E018"/>
</linearGradient>
</defs>
</svg>
