<svg width="272" height="308" viewBox="0 0 272 308" fill="none" xmlns="http://www.w3.org/2000/svg">
<mask id="mask0_204_65" style="mask-type:alpha" maskUnits="userSpaceOnUse" x="0" y="0" width="272" height="308">
<path d="M250 308H22C9.84974 308 0 298.15 0 286V22C0 9.84974 9.84974 0 22 0H170L272 102V286C272 298.15 262.15 308 250 308Z" fill="url(#paint0_linear_204_65)"/>
</mask>
<g mask="url(#mask0_204_65)">
<path d="M250 308H22C9.84974 308 0 298.15 0 286V22C0 9.84974 9.84974 0 22 0H170L272 102V286C272 298.15 262.15 308 250 308Z" fill="url(#paint1_linear_204_65)"/>
<g opacity="0.2" filter="url(#filter0_f_204_65)">
<rect x="48" y="149" width="178" height="84" fill="#074385" style="mix-blend-mode:darken"/>
</g>
<g opacity="0.13">
<path fill-rule="evenodd" clip-rule="evenodd" d="M120.332 154.724C117.572 153.131 114.185 153.147 111.441 154.768C108.696 156.388 107.008 159.367 107.008 162.59V221.772C107.008 224.994 108.696 227.974 111.441 229.594C114.185 231.214 117.572 231.231 120.332 229.638L171.6 200.047C174.387 198.439 176.109 195.435 176.109 192.181C176.109 188.927 174.387 185.923 171.6 184.315L120.332 154.724ZM149.156 192.181L124.84 206.216V178.146L149.156 192.181Z" fill="white"/>
<path fill-rule="evenodd" clip-rule="evenodd" d="M135.999 113L135.288 113.001C134.828 113.002 134.154 113.004 133.292 113.008C131.57 113.016 129.095 113.033 126.08 113.066C120.053 113.131 111.846 113.262 103.146 113.524C94.4608 113.786 85.2122 114.181 77.1228 114.78C69.2827 115.36 61.7748 116.178 57.0167 117.47L56.893 117.504C51.1858 119.143 46.0058 122.281 41.8762 126.602C37.7465 130.923 34.8135 136.274 33.3734 142.113C33.3252 142.309 33.2834 142.506 33.2481 142.704C30.3476 159.028 28.9273 175.588 29.005 192.175C28.9047 208.887 30.3251 225.573 33.2482 242.02C33.3004 242.314 33.3669 242.605 33.4475 242.892C35.0352 248.55 38.0339 253.697 42.154 257.836C46.274 261.974 51.3761 264.964 56.9672 266.517L57.0167 266.53C61.7748 267.822 69.2827 268.64 77.1228 269.22C85.2122 269.819 94.4608 270.214 103.146 270.476C111.846 270.738 120.053 270.869 126.08 270.934C129.095 270.967 131.57 270.984 133.292 270.992C134.154 270.996 134.828 270.998 135.288 270.999L135.996 271L136.712 270.999C137.172 270.998 137.846 270.996 138.708 270.992C140.43 270.984 142.905 270.967 145.92 270.934C151.947 270.869 160.154 270.738 168.854 270.476C177.539 270.214 186.788 269.819 194.877 269.22C202.717 268.64 210.225 267.822 214.983 266.53L215.107 266.496C220.814 264.857 225.994 261.718 230.124 257.398C234.253 253.077 237.186 247.726 238.627 241.887C238.675 241.691 238.717 241.494 238.752 241.295C241.63 225.092 243.051 208.657 242.995 192.193C243.096 175.479 241.675 158.791 238.752 142.342C238.717 142.144 238.675 141.947 238.627 141.751C237.186 135.912 234.253 130.561 230.124 126.24C225.994 121.92 220.814 118.781 215.107 117.142C215.003 117.113 214.899 117.085 214.795 117.059C210.107 115.897 202.664 115.154 194.821 114.623C186.747 114.078 177.511 113.717 168.831 113.478C160.137 113.239 151.936 113.12 145.912 113.06C142.898 113.03 140.425 113.015 138.704 113.008C137.843 113.004 137.17 113.002 136.711 113.001L135.999 113ZM136 122.049L136 131.099L136.675 131.099L138.628 131.106C140.321 131.113 142.761 131.128 145.737 131.157C151.695 131.217 159.788 131.335 168.347 131.57C176.92 131.806 185.895 132.159 193.636 132.682C201.469 133.211 207.374 133.878 210.405 134.602C213.032 135.385 215.416 136.846 217.324 138.842C219.206 140.811 220.561 143.235 221.261 145.883C223.952 161.143 225.259 176.621 225.163 192.124L225.162 192.214C225.217 207.483 223.911 222.725 221.261 237.755C220.561 240.403 219.206 242.827 217.324 244.796C215.394 246.816 212.977 248.286 210.314 249.063C207.382 249.846 201.499 250.583 193.58 251.169C185.854 251.741 176.891 252.127 168.324 252.385C159.771 252.643 151.683 252.772 145.729 252.837C142.754 252.869 140.316 252.885 138.624 252.893C137.778 252.897 137.119 252.899 136.673 252.9H135.327C134.881 252.899 134.222 252.897 133.376 252.893C131.684 252.885 129.246 252.869 126.271 252.837C120.317 252.772 112.229 252.643 103.676 252.385C95.1086 252.127 86.1458 251.741 78.42 251.169C70.4674 250.581 64.5672 249.84 61.6487 249.053C59.0255 248.32 56.632 246.914 54.6979 244.972C52.8519 243.117 51.4839 240.833 50.7115 238.321C48.0386 223.112 46.7418 207.687 46.8374 192.238L46.8375 192.136C46.7626 176.75 48.0686 161.39 50.7394 146.245C51.4392 143.597 52.7937 141.173 54.6762 139.204C56.606 137.184 59.023 135.714 61.6863 134.937C64.6177 134.154 70.5014 133.417 78.42 132.831C86.1458 132.259 95.1086 131.873 103.676 131.615C112.229 131.357 120.317 131.228 126.271 131.163C129.246 131.131 131.684 131.115 133.376 131.107C134.222 131.103 134.881 131.101 135.327 131.1L135.991 131.099L136 122.049Z" fill="white"/>
</g>
<path d="M109.34 217.395C108.34 217.395 107.497 217.053 106.812 216.368C106.128 215.683 105.785 214.841 105.785 213.84V168.573H89.6694C88.7214 168.573 87.9314 168.257 87.2994 167.625C86.6674 166.993 86.3514 166.203 86.3514 165.255C86.3514 164.307 86.6674 163.517 87.2994 162.885C87.9314 162.2 88.7214 161.858 89.6694 161.858H129.011C129.959 161.858 130.749 162.2 131.381 162.885C132.066 163.517 132.408 164.307 132.408 165.255C132.408 166.203 132.066 166.993 131.381 167.625C130.749 168.257 129.959 168.573 129.011 168.573H112.974V213.84C112.974 214.841 112.606 215.683 111.868 216.368C111.184 217.053 110.341 217.395 109.34 217.395ZM164.038 217.79C157.349 217.79 151.082 216.526 145.236 213.998C144.604 213.735 144.077 213.313 143.656 212.734C143.235 212.102 143.024 211.444 143.024 210.759C143.024 209.864 143.314 209.1 143.893 208.468C144.525 207.783 145.315 207.441 146.263 207.441C146.79 207.441 147.29 207.546 147.764 207.757C152.609 209.916 157.797 210.996 163.327 210.996C172.544 210.996 177.152 207.968 177.152 201.911C177.152 200.331 176.546 199.014 175.335 197.961C174.176 196.908 172.728 196.091 170.99 195.512C169.252 194.88 166.777 194.143 163.564 193.3C159.298 192.194 155.848 191.141 153.215 190.14C150.582 189.087 148.317 187.533 146.421 185.479C144.525 183.425 143.577 180.686 143.577 177.263C143.577 174.261 144.367 171.549 145.947 169.126C147.527 166.651 149.844 164.702 152.899 163.28C156.006 161.805 159.719 161.068 164.038 161.068C169.831 161.068 175.072 161.937 179.759 163.675C181.234 164.202 181.971 165.255 181.971 166.835C181.971 167.678 181.681 168.441 181.102 169.126C180.523 169.811 179.759 170.153 178.811 170.153C178.495 170.153 178.074 170.048 177.547 169.837C173.439 168.415 169.199 167.704 164.828 167.704C160.667 167.704 157.27 168.494 154.637 170.074C152.056 171.654 150.766 173.866 150.766 176.71C150.766 178.606 151.372 180.16 152.583 181.371C153.847 182.53 155.401 183.451 157.244 184.136C159.14 184.768 161.694 185.453 164.907 186.19C169.068 187.191 172.412 188.191 174.94 189.192C177.521 190.193 179.706 191.746 181.497 193.853C183.34 195.96 184.262 198.804 184.262 202.385C184.262 205.334 183.419 207.994 181.734 210.364C180.049 212.681 177.679 214.498 174.624 215.815C171.569 217.132 168.041 217.79 164.038 217.79Z" fill="white"/>
<path d="M106.812 216.368L105.398 217.782L106.812 216.368ZM105.785 168.573H107.785V166.573H105.785V168.573ZM87.2994 167.625L85.8851 169.039L85.8851 169.039L87.2994 167.625ZM87.2994 162.885L88.7136 164.299L88.7418 164.271L88.769 164.242L87.2994 162.885ZM131.381 162.885L129.912 164.242L129.966 164.3L130.025 164.355L131.381 162.885ZM131.381 167.625L130.025 166.155L129.995 166.183L129.967 166.211L131.381 167.625ZM112.974 168.573V166.573H110.974V168.573H112.974ZM111.868 216.368L110.507 214.902L110.48 214.928L110.454 214.954L111.868 216.368ZM109.34 215.395C108.85 215.395 108.522 215.25 108.227 214.954L105.398 217.782C106.472 218.856 107.829 219.395 109.34 219.395V215.395ZM108.227 214.954C107.931 214.658 107.785 214.33 107.785 213.84H103.785C103.785 215.351 104.325 216.709 105.398 217.782L108.227 214.954ZM107.785 213.84V168.573H103.785V213.84H107.785ZM105.785 166.573H89.6694V170.573H105.785V166.573ZM89.6694 166.573C89.2161 166.573 88.946 166.443 88.7136 166.211L85.8851 169.039C86.9167 170.071 88.2266 170.573 89.6694 170.573V166.573ZM88.7136 166.211C88.4812 165.978 88.3514 165.708 88.3514 165.255H84.3514C84.3514 166.698 84.8536 168.008 85.8851 169.039L88.7136 166.211ZM88.3514 165.255C88.3514 164.802 88.4812 164.532 88.7136 164.299L85.8851 161.471C84.8536 162.502 84.3514 163.812 84.3514 165.255H88.3514ZM88.769 164.242C89.0149 163.975 89.2685 163.858 89.6694 163.858V159.858C88.1742 159.858 86.8478 160.426 85.8298 161.528L88.769 164.242ZM89.6694 163.858H129.011V159.858H89.6694V163.858ZM129.011 163.858C129.412 163.858 129.666 163.975 129.912 164.242L132.851 161.528C131.833 160.426 130.506 159.858 129.011 159.858V163.858ZM130.025 164.355C130.291 164.601 130.408 164.854 130.408 165.255H134.408C134.408 163.76 133.841 162.433 132.738 161.415L130.025 164.355ZM130.408 165.255C130.408 165.656 130.291 165.909 130.025 166.155L132.738 169.095C133.841 168.077 134.408 166.75 134.408 165.255H130.408ZM129.967 166.211C129.735 166.443 129.465 166.573 129.011 166.573V170.573C130.454 170.573 131.764 170.071 132.796 169.039L129.967 166.211ZM129.011 166.573H112.974V170.573H129.011V166.573ZM110.974 168.573V213.84H114.974V168.573H110.974ZM110.974 213.84C110.974 214.281 110.84 214.594 110.507 214.902L113.229 217.834C114.372 216.773 114.974 215.4 114.974 213.84H110.974ZM110.454 214.954C110.158 215.25 109.83 215.395 109.34 215.395V219.395C110.852 219.395 112.209 218.856 113.283 217.782L110.454 214.954ZM145.236 213.998L146.03 212.162L146.018 212.157L146.005 212.152L145.236 213.998ZM143.656 212.734L141.992 213.843L142.015 213.877L142.039 213.91L143.656 212.734ZM143.893 208.468L142.423 207.111L142.419 207.117L143.893 208.468ZM147.764 207.757L148.578 205.93L148.576 205.929L147.764 207.757ZM175.335 197.961L173.99 199.441L174.006 199.456L174.023 199.47L175.335 197.961ZM170.99 195.512L170.306 197.392L170.332 197.401L170.358 197.409L170.99 195.512ZM163.564 193.3L164.071 191.365L164.066 191.364L163.564 193.3ZM153.215 190.14L152.472 191.997L152.488 192.003L152.505 192.01L153.215 190.14ZM146.421 185.479L144.951 186.836L144.951 186.836L146.421 185.479ZM145.947 169.126L147.622 170.219L147.628 170.21L147.633 170.202L145.947 169.126ZM152.899 163.28L153.743 165.093L153.75 165.09L153.756 165.087L152.899 163.28ZM179.759 163.675L179.064 165.55L179.075 165.554L179.086 165.558L179.759 163.675ZM181.102 169.126L182.629 170.418L182.629 170.418L181.102 169.126ZM177.547 169.837L178.29 167.98L178.246 167.962L178.201 167.947L177.547 169.837ZM154.637 170.074L153.608 168.359L153.6 168.364L153.593 168.368L154.637 170.074ZM152.583 181.371L151.169 182.785L151.199 182.816L151.232 182.845L152.583 181.371ZM157.244 184.136L156.548 186.011L156.579 186.023L156.612 186.033L157.244 184.136ZM164.907 186.19L165.375 184.245L165.365 184.243L165.354 184.241L164.907 186.19ZM174.94 189.192L174.204 191.052L174.217 191.057L174.94 189.192ZM181.497 193.853L179.973 195.148L179.982 195.159L179.992 195.17L181.497 193.853ZM181.734 210.364L183.351 211.54L183.358 211.532L183.364 211.523L181.734 210.364ZM174.624 215.815L175.416 217.652L175.416 217.652L174.624 215.815ZM164.038 215.79C157.608 215.79 151.613 214.577 146.03 212.162L144.442 215.834C150.551 218.475 157.09 219.79 164.038 219.79V215.79ZM146.005 212.152C145.728 212.036 145.489 211.854 145.273 211.558L142.039 213.91C142.665 214.772 143.48 215.433 144.467 215.844L146.005 212.152ZM145.32 211.625C145.093 211.284 145.024 211.006 145.024 210.759H141.024C141.024 211.881 141.376 212.92 141.992 213.843L145.32 211.625ZM145.024 210.759C145.024 210.34 145.142 210.065 145.367 209.819L142.419 207.117C141.485 208.135 141.024 209.388 141.024 210.759H145.024ZM145.363 209.825C145.609 209.558 145.862 209.441 146.263 209.441V205.441C144.768 205.441 143.441 206.009 142.423 207.111L145.363 209.825ZM146.263 209.441C146.514 209.441 146.737 209.489 146.952 209.585L148.576 205.929C147.843 205.603 147.065 205.441 146.263 205.441V209.441ZM146.95 209.584C152.062 211.862 157.529 212.996 163.327 212.996V208.996C158.065 208.996 153.156 207.97 148.578 205.93L146.95 209.584ZM163.327 212.996C168.091 212.996 172.011 212.225 174.794 210.396C177.724 208.471 179.152 205.534 179.152 201.911H175.152C175.152 204.344 174.276 205.95 172.597 207.053C170.772 208.253 167.78 208.996 163.327 208.996V212.996ZM179.152 201.911C179.152 199.742 178.287 197.878 176.647 196.452L174.023 199.47C174.805 200.151 175.152 200.92 175.152 201.911H179.152ZM176.68 196.481C175.284 195.211 173.58 194.267 171.622 193.615L170.358 197.409C171.876 197.915 173.069 198.604 173.99 199.441L176.68 196.481ZM171.673 193.632C169.849 192.969 167.305 192.214 164.071 191.365L163.057 195.235C166.248 196.072 168.655 196.791 170.306 197.392L171.673 193.632ZM164.066 191.364C159.836 190.267 156.464 189.235 153.925 188.27L152.505 192.01C155.233 193.046 158.76 194.121 163.062 195.236L164.066 191.364ZM153.958 188.283C151.597 187.339 149.582 185.954 147.891 184.122L144.951 186.836C147.052 189.112 149.567 190.835 152.472 191.997L153.958 188.283ZM147.891 184.122C146.408 182.517 145.577 180.302 145.577 177.263H141.577C141.577 181.07 142.642 184.333 144.951 186.836L147.891 184.122ZM145.577 177.263C145.577 174.633 146.262 172.303 147.622 170.219L144.272 168.033C142.471 170.794 141.577 173.889 141.577 177.263H145.577ZM147.633 170.202C148.979 168.093 150.981 166.379 153.743 165.093L152.055 161.467C148.707 163.025 146.075 165.209 144.261 168.05L147.633 170.202ZM153.756 165.087C156.536 163.768 159.942 163.068 164.038 163.068V159.068C159.496 159.068 155.476 159.843 152.041 161.473L153.756 165.087ZM164.038 163.068C169.631 163.068 174.631 163.907 179.064 165.55L180.454 161.8C175.512 159.967 170.032 159.068 164.038 159.068V163.068ZM179.086 165.558C179.52 165.713 179.696 165.888 179.78 166.007C179.864 166.127 179.971 166.36 179.971 166.835H183.971C183.971 165.73 183.71 164.646 183.056 163.713C182.402 162.778 181.473 162.163 180.432 161.792L179.086 165.558ZM179.971 166.835C179.971 167.173 179.87 167.485 179.575 167.834L182.629 170.418C183.492 169.397 183.971 168.183 183.971 166.835H179.971ZM179.575 167.834C179.4 168.041 179.209 168.153 178.811 168.153V172.153C180.309 172.153 181.645 171.58 182.629 170.418L179.575 167.834ZM178.811 168.153C178.865 168.153 178.85 168.16 178.743 168.134C178.642 168.108 178.493 168.061 178.29 167.98L176.804 171.694C177.41 171.936 178.113 172.153 178.811 172.153V168.153ZM178.201 167.947C173.882 166.452 169.421 165.704 164.828 165.704V169.704C168.978 169.704 172.996 170.378 176.893 171.727L178.201 167.947ZM164.828 165.704C160.429 165.704 156.644 166.538 153.608 168.359L155.666 171.789C157.897 170.45 160.906 169.704 164.828 169.704V165.704ZM153.593 168.368C150.464 170.284 148.766 173.118 148.766 176.71H152.766C152.766 174.614 153.648 173.024 155.681 171.78L153.593 168.368ZM148.766 176.71C148.766 179.074 149.541 181.157 151.169 182.785L153.997 179.957C153.203 179.162 152.766 178.138 152.766 176.71H148.766ZM151.232 182.845C152.712 184.202 154.497 185.249 156.548 186.011L157.94 182.261C156.304 181.653 154.982 180.857 153.934 179.897L151.232 182.845ZM156.612 186.033C158.595 186.694 161.219 187.396 164.46 188.139L165.354 184.241C162.17 183.51 159.685 182.842 157.876 182.239L156.612 186.033ZM164.439 188.135C168.554 189.124 171.798 190.099 174.204 191.052L175.676 187.332C173.026 186.283 169.581 185.257 165.375 184.245L164.439 188.135ZM174.217 191.057C176.488 191.937 178.398 193.295 179.973 195.148L183.021 192.558C181.015 190.197 178.553 188.448 175.663 187.327L174.217 191.057ZM179.992 195.17C181.435 196.82 182.262 199.149 182.262 202.385H186.262C186.262 198.458 185.245 195.1 183.002 192.536L179.992 195.17ZM182.262 202.385C182.262 204.925 181.545 207.179 180.104 209.205L183.364 211.523C185.294 208.809 186.262 205.743 186.262 202.385H182.262ZM180.117 209.188C178.674 211.171 176.611 212.781 173.832 213.978L175.416 217.652C178.746 216.216 181.423 214.192 183.351 211.54L180.117 209.188ZM173.832 213.978C171.073 215.168 167.823 215.79 164.038 215.79V219.79C168.259 219.79 172.066 219.096 175.416 217.652L173.832 213.978Z" fill="white"/>
<ellipse opacity="0.05" cx="-14.5" cy="-12.5" rx="223.5" ry="214.5" fill="url(#paint2_linear_204_65)"/>
<ellipse opacity="0.05" cx="-14.5" cy="-12.5" rx="140.5" ry="134.5" fill="url(#paint3_linear_204_65)"/>
<g filter="url(#filter1_d_204_65)">
<path d="M272 102H192C179.85 102 170 92.1503 170 80V0L272 102Z" fill="url(#paint4_linear_204_65)"/>
</g>
</g>
<defs>
<filter id="filter0_f_204_65" x="9" y="110" width="256" height="162" filterUnits="userSpaceOnUse" color-interpolation-filters="sRGB">
<feFlood flood-opacity="0" result="BackgroundImageFix"/>
<feBlend mode="normal" in="SourceGraphic" in2="BackgroundImageFix" result="shape"/>
<feGaussianBlur stdDeviation="19.5" result="effect1_foregroundBlur_204_65"/>
</filter>
<filter id="filter1_d_204_65" x="147" y="-24" width="152" height="152" filterUnits="userSpaceOnUse" color-interpolation-filters="sRGB">
<feFlood flood-opacity="0" result="BackgroundImageFix"/>
<feColorMatrix in="SourceAlpha" type="matrix" values="0 0 0 0 0 0 0 0 0 0 0 0 0 0 0 0 0 0 127 0" result="hardAlpha"/>
<feOffset dx="2" dy="1"/>
<feGaussianBlur stdDeviation="12.5"/>
<feColorMatrix type="matrix" values="0 0 0 0 0 0 0 0 0 0 0 0 0 0 0 0 0 0 0.33 0"/>
<feBlend mode="normal" in2="BackgroundImageFix" result="effect1_dropShadow_204_65"/>
<feBlend mode="normal" in="SourceGraphic" in2="effect1_dropShadow_204_65" result="shape"/>
</filter>
<linearGradient id="paint0_linear_204_65" x1="136" y1="0" x2="136" y2="308" gradientUnits="userSpaceOnUse">
<stop stop-color="#FF7979"/>
<stop offset="1" stop-color="#E85555"/>
</linearGradient>
<linearGradient id="paint1_linear_204_65" x1="136" y1="0" x2="136" y2="308" gradientUnits="userSpaceOnUse">
<stop stop-color="#71AFF2"/>
<stop offset="0.942892" stop-color="#2F74C0"/>
</linearGradient>
<linearGradient id="paint2_linear_204_65" x1="1.72772" y1="-5.12887" x2="69.5069" y2="174.758" gradientUnits="userSpaceOnUse">
<stop stop-color="white" stop-opacity="0"/>
<stop offset="1" stop-color="white"/>
</linearGradient>
<linearGradient id="paint3_linear_204_65" x1="-4.29868" y1="-7.87801" x2="38.1204" y2="104.989" gradientUnits="userSpaceOnUse">
<stop stop-color="white" stop-opacity="0"/>
<stop offset="1" stop-color="white"/>
</linearGradient>
<linearGradient id="paint4_linear_204_65" x1="221" y1="0" x2="221" y2="102" gradientUnits="userSpaceOnUse">
<stop stop-color="#87C0FF"/>
<stop offset="1" stop-color="#2F74C0"/>
</linearGradient>
</defs>
</svg>
